<svg width="194" height="142" viewBox="0 0 194 142" fill="none" xmlns="http://www.w3.org/2000/svg">
<path fill-rule="evenodd" clip-rule="evenodd" d="M0.294903 46.9314C4.43316 14.5525 51.0963 -5.25718 104.496 2.69132C122.457 5.36469 138.896 10.8383 152.647 18.158C149.511 19.8857 147.299 23.0728 147.039 26.8411C146.633 32.7818 151.233 37.9235 157.315 38.3216C163.246 38.7112 168.396 34.4433 169.026 28.7228C186.208 42.1673 195.845 58.9872 193.705 75.7202C189.567 108.098 142.904 127.91 89.5036 119.962C77.4326 118.164 66.055 115.099 55.7116 111.062C53.098 120.337 52.2786 130.552 52.8194 141.477C36.7065 124.409 27.0772 108.28 23.9302 93.0952C7.40535 79.7936 -1.80163 63.3205 0.294903 46.9314Z" fill="#E43629"/>
<path d="M154.97 42.5629C156.316 42.4457 157.614 42.3907 158.864 42.3948C160.052 42.3994 161.337 42.4631 162.71 42.5904C164.087 42.7178 165.431 42.9393 166.743 43.2462L166.563 90.5521C164.933 90.791 163.463 90.969 162.149 91.0863C160.835 91.2035 159.646 91.26 158.583 91.2572C157.519 91.2556 156.33 91.189 155.018 91.0602C153.703 90.9343 152.268 90.7446 150.703 90.4942L150.885 43.1883C152.265 42.8872 153.625 42.6802 154.97 42.5629Z" fill="white"/>
<path d="M107.452 24.7711C108.857 24.6234 110.238 24.5641 111.583 24.6017C112.93 24.6365 114.232 24.7233 115.472 24.8637C116.653 24.9998 117.923 25.2111 119.271 25.4862C120.62 25.7598 121.934 26.1318 123.201 26.5878L119.024 61.1842L131.474 41.9173C132.623 41.8001 134.011 41.7769 135.642 41.8421C137.27 41.9072 138.708 42.01 139.949 42.1547C141.566 42.34 143.191 42.5875 144.821 42.8988C146.452 43.21 147.752 43.5473 148.716 43.9034L134.521 64.4209L144.36 90.9444C143.21 91.0559 141.79 91.0761 140.1 91.0067C138.407 90.9328 136.94 90.8272 135.695 90.681C134.08 90.4942 132.489 90.2496 130.919 89.9456C129.35 89.6416 128.114 89.3174 127.21 88.9642L118.534 65.2431L115.828 87.6527C114.176 87.7699 112.694 87.7989 111.376 87.7395C110.06 87.6802 108.906 87.5933 107.912 87.479C106.855 87.3559 105.68 87.175 104.387 86.9332C103.093 86.693 101.656 86.3267 100.078 85.8374L107.452 24.7711Z" fill="white"/>
<path d="M85.2838 41.0908C86.6321 40.9779 87.93 40.9258 89.1805 40.9344C90.3688 40.9446 91.6504 41.0141 93.0269 41.1443C94.4019 41.2761 95.7457 41.499 97.057 41.8145L96.7103 89.119C95.0819 89.3521 93.6136 89.5258 92.2964 89.6373C90.9822 89.7502 89.7924 89.8066 88.7301 89.7994C87.6663 89.7893 86.478 89.7198 85.1652 89.588C83.8525 89.4563 82.4153 89.2652 80.8522 89.009L81.1989 41.7031C82.5768 41.4078 83.9384 41.2022 85.2838 41.0908Z" fill="white"/>
<path fill-rule="evenodd" clip-rule="evenodd" d="M78.8267 29.5466C78.1896 28.0556 77.8888 26.4054 78.0059 24.6842C78.4133 18.7464 83.6777 14.2488 89.7569 14.6484C95.8391 15.0436 100.44 20.1853 100.034 26.126C99.6247 32.0667 94.3618 36.5628 88.2826 36.1648C84.5415 35.9201 81.3574 33.8776 79.5587 30.9579C78.2112 40.4462 76.8567 49.9245 75.5029 59.3985C74.0641 69.4674 72.626 79.5313 71.1977 89.5967C68.5426 89.6083 66.009 89.5591 63.5924 89.4462C61.1773 89.3333 58.4496 89.0756 55.4137 88.6616C50.2116 87.9567 45.8467 86.7639 42.3263 85.0847C38.8073 83.4056 36.0411 81.3167 34.0275 78.8255C32.0125 76.3285 30.682 73.4638 30.0345 70.23C29.39 66.9976 29.3381 63.4714 29.8789 59.6571C30.396 56.0266 31.3902 52.7971 32.8659 49.9744C34.3387 47.1502 36.37 44.8486 38.9599 43.0696C41.5484 41.2934 44.7058 40.0703 48.4321 39.4029C52.1585 38.7342 56.5308 38.7414 61.5507 39.4203L62.3315 39.5318L64.0058 27.74C65.4104 27.6213 66.7898 27.5909 68.1381 27.6503C69.4879 27.7096 70.7828 27.8225 72.0215 27.9904C73.1994 28.1511 74.4618 28.3827 75.8071 28.6896C76.8384 28.9241 77.8459 29.2078 78.8267 29.5466ZM59.0571 52.3194C58.4451 52.1732 57.768 52.0516 57.0242 51.9503C53.9246 51.5305 51.4132 52.1023 49.4871 53.6599C47.5624 55.2189 46.3237 57.9359 45.7741 61.8125C45.1562 66.1696 45.5607 69.4193 46.9949 71.5559C48.4277 73.6954 50.8813 74.9982 54.3528 75.4672C55.1574 75.5758 55.7648 75.6308 56.1752 75.625C56.5871 75.6163 56.9176 75.6322 57.1635 75.6641L60.4246 52.6885C60.1238 52.5887 59.666 52.4656 59.0571 52.3194Z" fill="white"/>
<path d="M158.245 38.4968C164.447 38.4968 169.475 33.4692 169.475 27.2674C169.475 21.0655 164.447 16.038 158.245 16.038C152.044 16.038 147.016 21.0655 147.016 27.2674C147.016 33.4692 152.044 38.4968 158.245 38.4968Z" fill="white"/>
</svg>
