<?xml version="1.0" encoding="UTF-8"?>
<!DOCTYPE svg PUBLIC "-//W3C//DTD SVG 1.1//EN" "http://www.w3.org/Graphics/SVG/1.1/DTD/svg11.dtd">
<!-- Creator: CorelDRAW Standard 2024 (Wersja próbna) -->
<svg xmlns="http://www.w3.org/2000/svg" xml:space="preserve" width="1842px" height="1735px" version="1.1" style="shape-rendering:geometricPrecision; text-rendering:geometricPrecision; image-rendering:optimizeQuality; fill-rule:evenodd; clip-rule:evenodd"
viewBox="0 0 1961.822 1847.86"
 xmlns:xlink="http://www.w3.org/1999/xlink"
 xmlns:xodm="http://www.corel.com/coreldraw/odm/2003">
 <defs>
  <style type="text/css">
   <![CDATA[
    .fil0 {fill:#000050}
   ]]>
  </style>
 </defs>
 <g id="Warstwa_x0020_1">
  <metadata id="CorelCorpID_0Corel-Layer"/>
  <path class="fil0" d="M1190.726 1622.07l0 1.065 -1.243 -0.888 1.243 -0.177zm-587.908 -59.643l1.065 0 -0.887 1.242 -0.178 -1.242zm-208.749 -107.57l1.064 0 -0.887 1.243 -0.177 -1.243zm-120.351 -128.871l1.065 0 -0.887 1.243 -0.178 -1.243zm1465.508 -830.738l1.065 0 -0.887 1.242 -0.178 -1.242zm-97.984 -139.522l1.065 0 -0.888 1.243 -0.177 -1.243zm-1332.378 -4.26l0 1.066 -1.242 -0.888 1.242 -0.178zm0 0c0,-10.168 -0.111,-19.345 7.174,-25.842 5.833,-5.203 12.647,-10.334 17.519,-16.563l7.063 -8.913c1.499,-1.898 2.414,-2.345 4.033,-4.488 1.545,-2.046 2.393,-3.119 3.633,-4.887 2.361,-3.368 4.305,-6.487 6.81,-10.231 7.369,-11.017 11.111,-21.823 14.907,-35.15 8.081,-28.373 8.008,-64.943 1.699,-92.025 -6.091,4.079 -11.518,9.799 -16.712,15.21l-4.553 5.178c-0.209,0.23 -0.732,0.899 -0.933,1.128 -8.262,9.448 -16.806,17.816 -23.812,28.329 -19.306,28.968 -32.381,61.419 -29.614,98.203 0.246,3.281 1.357,11.211 1.865,14.111 0.91,5.193 1.393,8.664 1.365,14.665 -0.045,9.457 -2.711,19.18 -4.924,27.03 -2.829,10.031 -4.274,14.794 -10.275,21.677 -2.53,2.902 -4.302,6.015 -6.556,9.42 -2.386,3.605 -4.19,5.9 -6.742,9.234 -2.85,3.724 -3.517,5.683 -6.938,9.038 -8.856,8.684 -19.7,26.283 -26.337,37.566l-20.988 34.394c-2.56,4.888 -5.421,11.55 -9.928,14.568 0,-25.45 4.964,-24.477 14.012,-42.435 8.873,-17.611 18.483,-32.305 20.048,-53.44 2.032,-27.43 0.991,-73.951 -11.694,-99.029l-4.261 -12.781c-7.581,2.024 -19.948,28.173 -24.136,36.571 -3.177,6.37 -7.573,13.944 -9.818,20.004 -2.712,7.317 -5.645,15.676 -7.598,23.289 -5.544,21.613 -7.38,42.262 -2.768,65.637 2.5,12.674 7.699,23.174 11.708,35.154 4.897,14.638 5.421,39.215 0.813,53.808 -3.859,12.22 -26.415,60.473 -35.45,85.966 -2.928,8.262 -13.533,40.829 -13.694,48.078l-2.13 0c-0.885,-10.627 -5.628,-18.978 -1.504,-29.195 13.366,-33.111 16.827,-64.5 8.334,-101.181 -1.208,-5.22 -2.434,-8.813 -3.634,-13.407 -4.316,-16.516 -12.742,-32.222 -21.333,-46.83 -2.093,-3.561 -4.45,-6.39 -6.708,-10.332 -2.976,-5.192 -3.026,-6.147 -8.172,-8.869 -1.743,3.294 -3.271,4.972 -4.683,9.162l-6.605 22.152c-1.162,4.753 -2.165,6.952 -3.198,11.713 -3.521,16.229 -5.75,32.597 -5.75,51.762 0,11.192 0.332,17.29 2.21,26.547 1.472,7.253 3.149,15.838 5.975,22.781 2.962,7.282 5.387,13.043 9.283,19.473 4.013,6.626 7.638,11.503 11.929,17.893 8.566,12.757 13.904,25.6 16.17,41.341 3.595,24.962 -9.796,71.753 -11.484,102.017 -1.021,18.307 -3.196,36.64 -3.196,55.381 -3.127,-2.29 -4.604,-7.076 -6.399,-10.643 -9.495,-18.872 8.016,-50.886 -15.045,-109.565 -5.929,-15.088 -20.853,-36.833 -31.53,-49.413 -1.982,-2.335 -1.835,-2.882 -4.256,-5.33l-13.828 -13.68c-4.221,-4.288 -9.541,-10.084 -15.211,-11.598 0,17.794 -6.3,37.268 -4.183,55.304 0.993,8.455 1.863,18.115 3.234,26.588 4.232,26.158 10.968,43.08 26.065,65.529l8.942 11.294c9.979,12.46 28.13,24.343 34.121,36.172 12.569,24.817 18.226,41.442 18.078,73.517 -0.03,6.479 1.098,7.74 1.104,13.806 0.015,14.665 1.518,27.574 3.273,42.524 0.917,7.808 2.098,17.896 3.692,26.13 1.758,9.084 3.993,17.388 4.723,26.163 -0.165,-0.19 -0.43,-0.732 -0.493,-0.572l-14.008 -24.334c-4.087,-10.239 -4.219,-22.259 -6.135,-33.271 -3.133,-18.013 -10.051,-34.469 -19.409,-49.819l-16.403 -23.005c-1.799,-2.473 -2.776,-3.318 -5.06,-5.59l-32.429 -27.213c-8.023,-5.344 -16.086,-11.471 -24.636,-15.855l-13.493 -6.725c0,16.337 5.521,41.291 9.373,56.661 2.313,9.232 4.625,16.712 7.992,25.024 7.017,17.326 22.508,44.762 36.755,55.904l13.423 11.074c6.638,4.873 12.577,10.094 19.805,14.276 3.782,2.188 6.993,3.48 11.071,5.97 4.181,2.553 6.017,3.185 9.438,6.538l9.66 11.64c0.171,0.267 0.626,1.067 0.807,1.323l11.629 16.062c4.678,6.601 7.175,14.932 9.348,23.669 4.517,18.154 10.487,33.641 15.336,51.762 3.258,12.176 8.859,24.996 12.984,37.074 4.185,12.254 11.603,24.175 14.502,36.62l-11.496 -8.739c-11.462,-11.462 -14.968,-28.467 -20.881,-43.023 -3.187,-7.849 -13.403,-26.494 -19.002,-33.186 -10.646,-12.723 -9.172,-10.677 -20.224,-21.312l-42.13 -30.997 -15.498 -7.229c-4.845,-2.451 -10.013,-4.756 -14.693,-6.609 -9.978,-3.95 -20.842,-8.238 -31.809,-10.792 0.529,2.269 1.041,4.186 1.694,6.826l12.151 33.647c1.89,4.144 3.445,8.625 5.32,12.785l13.212 23c13.304,19.815 28.723,39.024 48.773,52.407l16.834 10.857c16.864,8.352 21.796,9.208 40.08,15.303 15.782,5.26 22.854,10.434 33.652,20.665 2.411,2.285 3.023,2.08 5.184,4.401l4.408 5.178c12.704,13.282 18.602,29.692 28.292,45.196 11.972,19.157 24.727,44.28 38.267,61.848l16.078 21.199c1.528,2.335 2.15,3.872 3.383,6.202 -4.078,-0.95 -9.469,-4.631 -13.228,-6.989l-1.812 -1.122c-0.164,-0.111 -0.408,-0.295 -0.572,-0.411 -0.173,-0.122 -0.416,-0.315 -0.593,-0.443 -4.461,-3.225 -7.432,-3.924 -9.541,-6.642 -6.059,-7.811 -11.106,-17.734 -17.145,-25.641 -10.662,-13.96 -11.913,-17.225 -25.005,-28.247 -8.246,-6.944 3.087,0.395 -11.77,-9.532 -2.373,-1.585 -4.017,-2.678 -6.39,-4.26 -9.006,-6.004 -16.309,-11.567 -26.134,-16.468 -11.773,-5.873 -26.02,-11.115 -38.63,-14.623 -16.672,-4.637 -47.724,-10.233 -64.321,-10.233 13.192,24.931 21.164,38.482 39.683,60.433l23.431 23.431c18.885,15.859 47.548,32.824 72.064,37.636 4.954,0.973 9.633,1.703 15.417,2.689 4.522,0.771 13.271,1.528 17.672,1.499 22.243,-0.149 37.791,7.685 55.431,18.057 13.53,7.956 21.591,19.834 30.92,29.788l80.874 79.949c-7.658,0 -15.268,-2.497 -22.35,-4.277 -3.807,-0.957 -5.171,-3.54 -7.736,-6.109l-24.507 -23.421c-1.576,-1.353 -2.519,-1.744 -4.426,-3.03l-23.69 -16.781c-6.156,-3.404 -12.413,-6.188 -18.464,-9.227 -17.289,-8.686 -46.063,-14.631 -67.146,-14.863 -7.91,-0.088 -18.034,-2.022 -26.508,-1.027 -12.321,1.445 -24.955,1.612 -37.815,3.725 -11.755,1.93 -5.461,3.39 1.251,11.382 16.276,19.383 26.414,27.87 46.709,42.755 2.304,1.69 1.586,1.633 4.309,3.146 3.573,1.985 4.811,2.559 8.048,4.733 3.102,2.084 5.33,3.338 8.518,5.327 17.832,11.135 38.78,19.225 60.726,22.348 20.89,2.973 31.554,-0.252 50.893,-0.836 22.902,-0.69 31.561,-9.814 69.868,5.751 11.141,4.528 20.337,11.376 30.036,17.873l20.432 14.733c18.901,13.271 38.473,26.105 59.296,36.558 3.856,1.935 5.514,2.867 9.947,3.899 -4.152,5.668 -24.562,1.123 -32.149,-2.998l-18.247 -10.508c-3.01,-1.601 -4.312,-1.848 -7.456,-3.196 -9.762,-4.181 -17.532,-7.768 -28.842,-10.564 -11.728,-2.899 -20.19,-4.814 -33.651,-5.756l-18.112 -1.059c-28.008,-0.009 -63.813,7.885 -90.384,18.251 -6.847,2.671 -13.325,7.796 -20.381,9.44 0.933,4.007 1.846,4.094 5.023,6.693 9.895,8.097 21.054,13.808 32.613,19.574 23.28,11.612 46.706,20.101 72.888,24.032 28.877,4.335 56.506,-0.478 83.173,-11.035 14.25,-5.641 28.731,-15.29 46.969,-16.933 11.462,-1.033 17.653,-1.666 29.43,0.461 9.025,1.63 16.662,4.688 24.581,8.437l90.871 39.065c-5.244,7.157 -27.34,1.682 -33.23,0.212 -10.451,-2.609 -21.323,-6.054 -31.733,-7.673 -28.872,-4.489 -59.62,-1.505 -84.885,8.849l-14.312 5.924c-22.816,9.022 -41.281,23.513 -60.362,38.628l-9.244 6.792c-0.157,0.137 -0.414,0.386 -0.552,0.513 -0.138,0.126 -0.43,0.42 -0.54,0.525 -0.11,0.104 -0.345,0.364 -0.518,0.547 3.652,5.454 13.223,6.779 19.384,8.308 7.979,1.979 15.693,3.712 23.475,5.28 29.635,5.973 72.035,6.2 101.075,-2.785 39.784,-12.31 61.43,-41.043 90.767,-50.885 4.882,-1.638 18.601,-4.342 24.942,-3.358 26.991,4.186 82.219,22.493 90.759,23.204l0 2.13c-5.379,0.448 -8.389,2.409 -13.575,3.466 -22.034,4.49 -35.921,-4.985 -70.115,8.699 -2.927,1.172 -4.268,1.364 -7.17,2.416 -8.634,3.127 -15.781,7.03 -23.328,11.818l-36.005 28.963c-1.439,1.779 -1.029,1.15 -2.563,2.762 -8.428,8.855 -28.375,32.093 -30.433,40.925 6.546,0 8.361,1.001 13.809,1.112l42.521 -3.36c3.813,-0.499 8.42,-1.387 12.658,-2.252 11.93,-2.437 23.15,-7.879 34.178,-12.684 3.392,-1.477 6.482,-2.831 10.096,-4.814 14.395,-7.9 27.306,-18.933 38.255,-30.974 16.446,-18.086 25.199,-41.353 62.564,-38.628 7.957,0.58 17.76,3.663 25.342,5.544l24.046 6.841c15.341,4.541 31.969,9.327 46.613,15.159 13.755,5.479 30.63,11.441 43.515,18.259 -1.988,2.712 -6.591,4.955 -10.012,7.029l-52.4 32.804c-6.984,4.644 -13.989,9.387 -19.879,15.268l-18.081 15.994c-9.939,10.087 -8.348,6.874 -21.828,21.846l-11.988 13.573c-4.88,6.66 -11.428,12.358 -15.984,19.162l18.532 15.549c2.685,2.046 4.228,3.205 7.028,4.687 5.749,-3.849 20.518,-27.312 26.902,-34.871l15.768 -17.249c13.121,-14.09 28.001,-28.032 43.591,-39.482l31.314 -21.939c4.147,-2.519 7.478,-4.1 11.509,-6.597 20.65,-12.791 18.806,-16.822 34.5,-7.233l11.435 6.671c14.803,7.775 34.092,21.652 47.284,32.595l10.075 8.029c7.841,6.165 16.631,13.874 23.351,21.383 1.546,1.728 1.867,2.633 3.861,4.658l21.779 24.018c1.568,1.979 2.083,2.726 3.771,4.75 1.413,1.692 2.755,3.571 4.128,5.458l15.337 20.874c2.362,-1.582 3.218,-2.693 5.945,-4.705 4.24,-3.128 16.383,-14.668 19.616,-15.531 -1.096,-1.635 -2.107,-3.391 -3.482,-5.038l-27.646 -33.062 -26.678 -24.444c-29.496,-24.469 -23.351,-20.148 -59.782,-44.593 -5.904,-3.962 -27.882,-17.195 -33.649,-18.539 9.24,-8.031 63.544,-25.636 77.348,-30.222 4.547,-1.51 8.061,-2.579 12.336,-3.639 15.256,-3.781 33.618,-10.394 48.975,-12.798 14.814,-2.32 26.3,1.856 37.441,7.951 9.91,5.422 13.982,17.326 21.716,25.146l32.448 29.325c26.636,17.783 62.264,29.211 94.572,28.974 6.477,-0.048 9.079,0.698 13.844,1.067 6.656,0.515 9.896,-0.96 14.916,-1.072 1.615,-7.625 -7.43,-15.487 -11.706,-21.309 -1.644,-2.238 -2.235,-2.461 -3.991,-4.53 -26.711,-31.472 -60.041,-58.409 -101.531,-66.747 -22.452,-4.513 -36.566,0.137 -64.895,-6.463l0 -2.13c12.993,-0.289 31.673,-8.593 44.295,-12.153 34.504,-9.731 55.592,-19.297 89.888,0.451 12.887,7.421 22.429,18.293 36.948,25.89 2.503,1.31 2.682,1.703 4.62,2.835 23.145,13.522 49.668,21.345 77.731,21.318l39.441 -2.096 35.949 -6.652c6.692,-1.473 14.667,-5.986 22.595,-6.162 -4.317,-8.156 -13.633,-12.988 -20.495,-18.912 -6.912,-5.969 -15.625,-11.199 -23.173,-16.234 -16.108,-10.747 -33.558,-18.894 -54.953,-24.926 -20.402,-5.753 -47.294,-9.307 -70.994,-5.167 -23.037,4.024 -43.024,14.336 -66.827,8.791 6.782,-5.894 35.456,-14.968 45.065,-18.838 28.466,-11.463 56.207,-30.877 80.57,-31.26 19.869,-0.313 35.32,3.998 51.853,12.132 4.06,1.998 8.284,3.419 12.242,4.799 16.685,5.812 32.122,12.25 51,12.904 8.524,0.295 11.472,1.239 21.351,0.106 12.368,-1.419 17.476,0.123 36.005,-5.532 21.822,-6.661 37.134,-14.505 56.676,-23.285l30.786 -18.124 0 -3.195c-4.325,-1.566 -7.98,-5.1 -12.04,-7.13 -28.372,-14.192 -85.152,-24.308 -115.871,-20.667 -19.722,2.338 -45.644,5.912 -62.949,15.864l-6.207 3.38c-17.349,9.882 -30.415,20.008 -52.154,14.943l5.355 -3.165c1.89,-1.071 3.423,-1.744 5.662,-2.858 4.088,-2.033 6.851,-3.973 10.718,-6.323l94.348 -61.149c53.159,-23.769 89.309,8.932 151.66,-12.358 2.977,-1.016 3.863,-1.58 6.11,-2.41l12.134 -4.906c2.152,-1.023 0.876,-0.564 2.82,-1.441l8.511 -4.269c13.421,-6.815 34.29,-22.222 46.418,-32.397l34.356 -35.936c-19.805,-1.648 -38.834,-6.404 -65.008,-5.365 -11.985,0.475 -34.126,3.783 -44.692,6.43l-23.848 7.038c-7.611,2.574 -13.899,6.507 -20.868,10.018 -8.908,4.485 -16.587,10.027 -24.325,16.149 -14.563,11.52 -16.027,13.031 -31.855,28.852 -6.196,6.194 -18.848,10.366 -31.17,10.366 2.811,-4.199 22.519,-19.852 28.492,-25.825 9.982,-9.982 23.49,-21.424 31.577,-32.326 1.566,-2.111 2.801,-3.171 4.62,-4.953l9.384 -9.802c8.233,-9.726 16.511,-19.772 26.317,-27.999 12.166,-10.206 20.323,-13.877 34.87,-20.512 3.122,-1.424 9.562,-3.65 13.414,-4.691 24.81,-6.71 66.835,3.325 112.691,-34.239l20.462 -16.862c0.219,-0.218 0.787,-0.906 0.998,-1.133l28.622 -33.15 15.951 -25.586c3.044,-4.523 7.594,-10.412 8.093,-16.404 -18.854,0 -37.039,3.449 -54.958,7.88 -26.163,6.472 -51.889,16.427 -73.023,32.417 -7.644,5.784 -16.809,11.237 -23.554,17.983 -2.334,2.333 -1.928,3.398 -4.731,5.92 -5.173,4.653 -10.85,11.165 -14.51,17.442 -1.572,2.695 -2.418,4.109 -4.039,6.493l-12.904 19.165c-4.197,4.99 -19.293,14.6 -26.356,16.246 11.905,-17.779 41.52,-58.437 50.417,-76.324l9.244 -17.382c1.306,-2.255 2.018,-3.185 3.526,-6.059l6.397 -11.709c1.999,-4.036 4.173,-7.791 6.65,-11.455l21.554 -23.178c11.219,-8.861 16.245,-12.345 30.169,-16.694 18.524,-5.785 36.103,-11.881 50.758,-21.666l10.42 -7.685c12.424,-8.344 23.731,-19.581 32.57,-31.333 1.506,-2 2.8,-3.634 4.1,-5.486 12.671,-18.064 25.285,-37.728 31.077,-59.452 2.294,-8.604 8.092,-18.924 8.315,-28.962 -19.045,4.437 -36.898,12.062 -53.958,20.596l-28.476 17.321c-2.411,1.771 -3.767,2.281 -5.958,3.628 -11.151,6.858 -28.167,27.747 -36.416,38.137 -3.066,3.863 -4.863,7.697 -7.273,11.897 -5.539,9.653 -8.629,13.316 -12.617,24.66 -3.484,9.91 -7.175,17.623 -9.734,28.608 -4.887,0.407 -2.643,0.034 -5.157,3.363l-15.079 12.613c1.895,-8.135 7.022,-15.521 9.74,-23.276 1.457,-4.159 2.627,-8.148 4.437,-12.604l8.923 -24.095c3.281,-8.077 4.974,-17.625 8.22,-25.86 6.65,-16.867 11.069,-50.921 21.161,-62.979 12.612,-15.068 13.331,-23.677 31.209,-35.888 7.048,-4.815 14.564,-6.507 20.944,-12.073l27.149 -22.908c1.65,-1.669 2.717,-2.557 4.302,-4.219l7.489 -9.552c1.452,-2.203 2.099,-2.967 3.585,-4.935 2.309,-3.056 4.754,-6.757 6.847,-10.194 8.849,-14.531 14.948,-31.208 19.399,-47.7l9.784 -57.314c-11.74,0.978 -37.49,21.389 -48.984,29.83l-12.902 10.53c-7.064,6.359 -13.008,14.161 -18.87,21.602 -0.993,1.26 -1.507,1.559 -2.508,2.817l-21.247 38.396 -7.062 23.824c-2.782,14.004 -4.006,27.59 -9.085,39.907l-11.409 19.478c0,-5.559 11.339,-65.634 11.758,-93.683 0.079,-5.313 -0.163,-10.745 -0.083,-16.058l1.52 -28.301c2.271,-13.122 6.315,-22.87 11.641,-34.157l11.501 -18.259 22.839 -21.954c0.155,-0.155 0.393,-0.361 0.553,-0.512 5.223,-4.916 9.289,-11.407 14.02,-16.867 3.425,-3.954 9.452,-13.682 11.311,-18.51 7.25,-18.822 11.399,-23.84 14.938,-45.769 2.23,-13.815 3.354,-28.382 3.34,-42.513 -0.006,-6.059 -1.101,-7.315 -1.077,-13.833 0.039,-10.87 -3.691,-16.474 -1.081,-27.676 -7.845,1.827 -23.099,16.863 -29.409,24.908 -7.967,10.158 -16.751,19.575 -23.631,30.686l-18.735 36.648c-5.46,16.142 -11.852,45.5 -8.742,62.828 0.629,3.506 0.391,4.247 0.644,7.876 0.619,8.854 1.783,14.538 -1.459,24.114 -1.759,5.195 -3.796,9.338 -4.937,14.234l-2.209 -19.091c-1.098,-9.724 -0.766,-24.238 -2.281,-33.932l-2.965 -25.791c-2.121,-26.054 -12.875,-48.778 -9.691,-75.723 4.167,-35.264 18.745,-42.201 31.715,-69.466 17.693,-37.193 16.594,-72.886 8.786,-112.475 -2.226,-11.285 -8.899,-35.604 -13.769,-44.81 -4.714,3.157 -8.329,9.426 -11.002,14.56 -4.774,9.172 -11.011,17.744 -15.624,26.977 -16.551,33.126 -24.846,76.891 -14.714,114.828 2.814,10.537 11.993,29.471 9.87,40.061 -1.161,5.786 -3.284,9.736 -3.677,14.454l-2.13 0c-1.386,-16.657 -22.702,-75.892 -29.812,-91.603 -6.606,-14.596 -12.563,-27 -17.799,-42.63 -14.127,-42.177 14.73,-73.963 14.599,-114.984 -0.045,-14.12 -2.818,-27.107 -5.967,-39.839 -3.937,-15.916 -9.553,-29.023 -16.932,-43.776 -7.697,-15.388 -9.316,-16.623 -16.496,-28.236 -2.16,-3.491 -3.2,-7.364 -7.472,-8.504 -0.148,6.622 -12.596,37.673 -14.666,51.367 -4.452,29.458 -5.182,58.998 5.216,86.955 5.633,15.149 13.85,29.949 22.447,43.585 4.526,7.179 5.109,16.608 5.109,27.908 -3.082,-2.258 -14.829,-24.14 -18.335,-29.592l-5.811 -10.165c-7.421,-14.127 -16.476,-25.994 -25.739,-38.164l-20.702 -27.226c-2.564,-3.363 -4.108,-5.83 -6.523,-9.452 -12.268,-18.403 -16.995,-42.198 -13.653,-64.564 0.63,-4.219 1.322,-10.756 1.326,-14.649 0.022,-21.725 -0.971,-42.707 -9.611,-61.801l-14.284 -26.192c-8.55,-12.87 -17.375,-24.595 -28.078,-35.821l-24.738 -23.19c0,15.475 -3.221,31.521 -3.209,46.852 0.017,19.649 3.466,39.67 10.511,57.676l10.588 23.494c1.373,2.411 1.396,3.071 2.964,5.557 9.722,15.429 21.934,23.476 31.951,36.212 4.394,5.587 8.127,7.984 9.808,15.753 0.971,4.486 1.828,10.302 3.42,13.621 -2.835,-1.027 -4.769,-4.244 -7.199,-6.647 -7.165,-7.084 -12.683,-15.574 -20.919,-21.683l-60.006 -55.02c-8.367,-7.016 -12.391,-16.573 -15.834,-26.768 -3.44,-10.191 -18.791,-36.676 -27.299,-45.124 -2.57,-2.553 -4.332,-4.367 -6.916,-6.929l-13.765 -10.37c-0.221,-0.156 -2.523,-1.884 -2.541,-1.896l-9.538 -5.557c-3.123,-1.613 -5.393,-3.048 -8.883,-4.963 -4.241,-2.327 -4.526,-3.23 -9.878,-5.032 -4.02,-1.354 -6.578,-2.545 -10.129,-3.718 -4.038,-1.333 -6.941,-2.305 -11.179,-3.732 -12.886,-4.336 -32.462,-11.311 -46.2,-11.311 0.136,6.12 5.328,14.905 7.814,19.876 6.174,12.346 13.249,23.202 21.646,34.017l2.834 3.362c11.336,13.611 13.793,18.169 28.825,30.732l2.293 1.967c11.017,9.43 32.267,20.91 45.638,24.656 21.144,5.921 41.18,9.902 56.816,26.277 1.106,1.158 1.848,2.046 3.491,3.242l7.867 6.681c13.85,10.284 34.669,32.697 46.719,44.876l12.498 16.258 -11.922 -3.662c-4.915,-2.917 -21.309,-19.493 -27.287,-24.227l-20.067 -12.949c-14.775,-8.239 -35.057,-13.613 -51.568,-15.531 -24.352,-2.829 -46.751,4.384 -68.552,11.17l-1.784 0.458c-0.361,0.084 -1.449,0.219 -1.805,0.295 -4.297,0.914 -8.155,3.048 -11.919,5.039 4.882,6.664 37.088,26.727 44.383,30.171 23.005,10.859 29.624,13.543 56.358,18.195l41.747 0.398c11.854,-1.761 30.157,-4.851 41.572,-1.708 7.243,1.993 14.258,5.413 20.795,9.026 14.685,8.12 13.749,9.813 23.408,21.41l12.642 17.094c6.521,9.838 13.014,17.147 21.935,31.318l8.747 13.618c4.916,9.569 20.581,30.753 21.301,39.407 -9.777,-6.547 -10.266,-4.233 -18.549,-16.598l-22.304 -29.604 -10.06 -8.325c-2.885,-1.903 -3.942,-3.064 -6.79,-4.926 -15.419,-10.082 -31.539,-17.421 -50.927,-20.43 -12.69,-1.97 -29.284,-3.28 -44.743,-2.132 -6.105,0.453 -14.352,2.476 -20.342,3.09 -8.091,0.83 -9.68,1.463 -4.237,6.942l35.726 34.216c0.167,0.143 0.407,0.347 0.575,0.49 0.167,0.144 0.407,0.347 0.574,0.49 24.171,20.633 54.035,32.78 86.724,35.757 2.825,0.257 6.803,0.868 10.248,1.468 10.255,1.788 20.273,0.146 30.61,4.537 5.845,2.482 9.538,5.573 14.268,9.162 7.171,5.44 12.215,11.601 16.899,19.314 1.707,2.81 2.882,4.589 4.355,7.36 6.862,12.912 15.899,36.987 20.427,49.866l12.528 34.334c2.066,6.195 3.713,12.097 5.604,17.827 1.509,4.574 3.957,15.005 4.382,20.114l-1.787 -2.473c-10.184,-16.314 -12.822,-15.202 -21.233,-36.28 -10.445,-26.179 -29.11,-48.203 -53.868,-62.222 -3.676,-2.081 -8.154,-3.915 -12.2,-5.905 -18.526,-9.116 -51.896,-15.991 -72.799,-17.73 0.371,4.464 2.476,7.247 4.471,10.439 2.016,3.227 3.721,5.902 5.481,9.429 11.112,22.277 23.567,38.495 41.411,55.509 7.738,7.377 17.119,13.051 26.37,18.362 1.601,0.919 2.762,1.851 4.472,2.983 5.052,3.343 14.197,6.907 20.696,9.126 24.502,8.365 42.527,10.73 57.943,32.948 3.987,5.746 6.707,13.132 8.499,19.896 2.043,7.71 4.024,15.98 5.325,24.496 2.509,16.434 6.56,34.434 8.441,51.202 1.029,9.178 0.685,19.567 1.98,27.841 0.752,4.808 -0.143,9.826 0.223,14.687l1.071 14.905c-2.824,-2.069 -4.923,-6.979 -6.755,-10.285 -3.593,-6.481 -2.907,-5.416 -4.334,-13.772 -0.939,-5.498 -0.949,-11.026 -1.797,-16.309 -0.664,-4.13 -2.094,-10.361 -3.28,-14.825 -2.671,-10.051 -8.178,-21.177 -13.664,-30.005 -6.795,-10.936 -19.532,-24.196 -29.53,-33.307 -6.241,-5.687 -14.487,-10.177 -21.946,-14.265 -2.635,-1.445 -2.518,-1.748 -5.305,-3.216 -2.338,-1.231 -3.314,-1.645 -5.688,-2.832 -12.832,-6.416 -24.02,-12.196 -38.702,-15.616 0,17.037 14.311,50.989 21.999,66.4 1.881,3.771 3.256,5.758 5.329,9.582 4.17,7.689 11.204,16.815 16.914,23.558 0.937,1.107 0.045,0.04 0.976,1.154 9.479,11.34 21.941,19.436 34.433,27.339 9.637,6.097 29.274,16.74 34.754,24.89l11.249 18.571c4.993,9.455 5.587,40.842 3.447,54.526 -1.352,8.644 -0.333,19.569 -1.373,28.449 -0.988,8.43 -2.142,18.17 -3.15,26.67 -1.734,14.621 -5.364,29.303 -8.189,43.999 -1.038,5.397 1.084,2.454 -2.429,5.027 -1.085,-4.66 -2.866,-8.031 -3.876,-13.164l0.642 -32.673c0.212,-5.365 1.855,-9.853 1.026,-16.923 -2.778,-23.703 -12.208,-49.749 -27.871,-67.983l-12.172 -15.158c-0.124,-0.172 -0.288,-0.44 -0.422,-0.612 -0.14,-0.18 -0.332,-0.433 -0.486,-0.61l-17.351 -14.961c-3.631,-2.855 -6.673,-4.883 -10.043,-8.064 -4.746,-4.479 -14.706,-12.63 -21.041,-14.106 0,42.825 0.382,63.697 18.112,103.304 0.845,1.888 1.204,3.469 2.151,5.305 1.152,2.235 0.058,-0.108 1.211,1.984l13.499 20.583c6.659,8.915 14.746,16.407 22.124,24.737l1.548 1.647c18.496,17.225 27.668,30.463 26.604,61.885 -0.41,12.102 -25.585,83.989 -28.944,92.472l-13.358 32.44c-1.522,2.864 -4.605,8.037 -4.605,11.37l-1.065 0c0,-4.668 -0.877,-4.796 -0.993,-7.54 -0.374,-8.835 4.839,-27.431 7.535,-35.975 5.714,-18.108 8.027,-42.27 4.029,-61.845l-16.532 -45.241c-9.736,-15.755 -12.38,-21.805 -25.12,-36.654 -0.143,-0.167 -0.326,-0.426 -0.469,-0.595l-2.514 -2.811c-0.161,-0.15 -0.408,-0.347 -0.573,-0.493 -0.165,-0.145 -0.407,-0.347 -0.575,-0.489 -5.101,-4.324 -8.839,-9.669 -14.846,-12.847 -6.665,13.894 -6.959,38.124 -9.355,53.482 -4.167,26.708 5.067,68.216 17.679,91.562 1.963,3.633 3.773,6.478 5.87,10.106 16.471,28.486 26.038,28.025 23.102,70.659 -1.046,15.191 -22.973,47.673 -31.937,62.854l-38.167 55.556c-2.44,3.705 -11.279,15.866 -14.054,17.898 1.674,-7.183 2.77,-18.303 6.589,-24.297 10.32,-16.193 19.587,-33.439 25.515,-52.234 11.052,-35.045 3.761,-77.82 -11.159,-107.366l-15.648 -30.149c-1.217,-2.1 -2.265,-3.913 -4.231,-5.354 -6.701,1.79 -10.78,19.578 -13.499,25.908 -6.018,14.005 -11.035,29.173 -14.12,44.458 -0.955,4.728 -1.496,8.683 -2.321,13.655 -3.995,24.098 -0.208,50.254 4.805,73.18 2.221,10.161 5.184,16.645 7.96,25.056 2.842,8.604 6.09,15.53 4.169,28.398 -0.576,3.857 -1.783,9.624 -2.832,13.15l-1.14 4.067c-0.086,0.293 -0.152,0.581 -0.245,0.872 -4.1,12.832 -12.035,22.902 -20.447,32.866l-34.571 36.787c-1.039,1.202 -1.145,1.143 -2.21,2.05l-1.745 1.45c-0.169,0.141 -0.403,0.352 -0.572,0.493 -1.866,1.555 -2.636,2.228 -4.45,4.082 -1.449,1.482 -2.204,2.383 -3.775,3.608l-40.029 34.585c-1.734,1.287 -3.618,2.208 -5.107,3.414 -3.002,2.433 -1.016,2.288 -5.133,3.388 2.588,-4.892 2.364,-8.881 5.506,-13.666 3.696,-5.629 8.811,-10.952 13.862,-14.894l14.057 -14.76c13.73,-16.528 23.318,-36.15 29.58,-56.628 8.801,-28.778 5.769,-65.552 -0.593,-94.53 -1.744,-7.944 -7.604,-24.355 -8.094,-30.248 -3.771,1.007 -6.742,4.696 -9.314,7.727l-21.922 30.265c-2.275,3.954 -3.944,6.813 -6.474,10.568 -2.536,3.765 -4.021,7.21 -5.957,11.083 -21.697,43.41 -20.917,66.832 -19.206,117.19 0.158,4.668 0.808,3.334 1.106,7.415l0.126 14.965c-1.139,11.817 -4.833,20.218 -10.197,30.24l-0.723 1.465c-4.195,7.556 -9.404,14.802 -16.696,19.577l-74.044 46.305c-18.785,10.931 -39.064,18.964 -58.23,29.105 0.997,-3.731 8.359,-11.757 11.434,-15.192 5.888,-6.575 9.36,-6.743 16.472,-11.22 8.413,-5.296 17.666,-9.646 24.759,-16.779 12.562,-12.634 25.36,-26.026 33.604,-42.013 7.458,-14.461 13.775,-29.172 17.485,-45.354 0.951,-4.15 1.463,-7.346 2.311,-11.534 2.925,-14.441 3.68,-36.877 3.663,-51.774 -0.003,-3.185 -1.954,-23.656 -2.937,-24.663 -1.728,-1.769 -6.489,2.364 -8.384,3.812l-11.56 9.74c-11.592,9.78 -29.621,27.131 -37.68,37.939 -2.142,2.873 -3.686,4.867 -5.941,7.904l-16.19 25.347 -11.809 29.729c-6.006,15.111 -6.53,29.494 -9.475,45.907 -2.097,11.69 0.822,22.558 -6.09,35.447 -6.96,12.98 -16.521,24.801 -28.124,33.648 -12.06,9.195 -57.194,23.827 -74.711,29.664l-42.526 12.857c-6.278,1.556 -15.312,4.508 -22.578,5.113 0.182,-0.173 0.46,-0.701 0.538,-0.528 0.077,0.174 0.422,-0.427 0.53,-0.534l8.789 -9.317c3.32,-3.641 9.008,-5.068 13.932,-7.369 17.626,-8.232 31.527,-12.033 46.262,-26.161 6.992,-6.704 14.497,-13.334 20.753,-20.784l9.5 -10.736c22.323,-28.044 37.087,-85.542 37.087,-119.475 -13.399,3.121 -49.768,26.71 -59.37,35.419 -2.123,1.925 -3.076,2.231 -5.355,4.231l-14.653 14.104c-0.453,0.511 -1.287,1.286 -2.11,2.149l-14.807 18.21c-1.6,2.368 -2.532,3.505 -4.02,5.566 -6.114,8.465 -12.499,21.486 -16.516,31.41 -8.976,22.167 -11.149,52.363 -25.961,69.894 -0.142,0.167 -0.357,0.398 -0.499,0.566 -1.382,1.627 0.399,-0.48 -0.977,1.152 -5.283,6.263 -11.679,11.171 -19.178,14.905 -9.393,4.677 -18.06,7.617 -28.058,10.283 -4.84,1.291 -8.923,3.188 -14.672,4.499 -5.841,1.332 -10.692,2.372 -15.575,3.597 -34.65,8.684 -66.71,20.293 -99.569,33.562l-13.439 5.731c-18.412,8.92 -5.968,7.337 -39.073,-6.057l-56.048 -20.636c-10.018,-3.34 -19.563,-6.074 -29.292,-9.05 -28.359,-8.67 -61.122,-10.919 -84.397,-30.628l-4.623 -3.898c-6.292,-6.673 -11.249,-13.343 -14.801,-22.476 -10.462,-26.898 -7.899,-52.08 -35.74,-88.87l-37.722 -37.896c-28.377,-20.944 -20.85,-16.182 -52.271,-34.01 -9.88,-5.606 -5.051,1.038 -4.621,15.283 0.428,14.198 10.509,53.368 16.284,67.855 10.616,26.629 33.183,54.512 55.694,71.047 2.297,1.687 3.821,2.939 6.043,4.603 1.808,1.354 1.286,0.891 3.249,2.1 1.576,0.971 2.225,1.483 3.499,2.2l41.545 20.9c1.485,1.108 10.426,9.334 11.077,10.224 -15.529,-3.618 -29.477,-7.214 -43.803,-11.58l-41.534 -13.848c-13.644,-4.505 -48.134,-15.213 -58.203,-24.871 -18.757,-17.99 -31.964,-36.546 -32.23,-64.689 -0.155,-16.371 -4.084,-31.508 -8.68,-46.703 -4.956,-16.391 -12.777,-32.906 -22.17,-47.059 -11.034,-16.628 -24.097,-30.858 -38.074,-45 -4.108,-4.156 -27.092,-24.491 -30.504,-24.975 -4.458,-0.633 -2.372,5.861 -2.86,10.253 -3.158,28.468 -1.328,60.162 6.862,88.087 3.264,11.131 11.015,33.638 18.482,43.291 1.33,1.721 1.769,2.505 3.052,4.403 5.766,8.53 12.237,15.082 19.355,22.182l31.177 24.206c10.802,6.295 22.794,15.152 29.787,25.595 -10.282,-0.856 -25.976,-10.876 -35.506,-15.616 -4.494,-2.235 -6.724,-4.001 -10.973,-6.067l-11.39 -5.652c-3.963,-1.969 -7.881,-3.677 -11.342,-5.699 -3.367,-1.967 -7.427,-4.294 -10.601,-6.16l-1.971 -1.142c-21.215,-11.647 -42.319,-24.808 -59.605,-41.935 -29.293,-29.025 -16.391,-61.739 -16.235,-97.727 0.124,-28.384 -7.273,-58.437 -19.879,-83.43l-12.779 -22.368c-7.776,-14.193 -17.412,-23.148 -21.651,-29.471 -2.504,-3.735 -3.833,-8.028 -9.598,-8.508 -3.842,8.007 -6.279,19.79 -8.734,29.609 -1.178,4.711 -2.643,9.844 -3.636,15.534 -3.125,17.921 -4.959,35.806 -1.915,53.28 2.791,16.016 5.325,31.735 11.694,46.884 5.329,12.674 13.496,23.824 22.249,34.2l9.585 10.65c0.142,0.169 0.352,0.402 0.494,0.571 5.492,6.552 14.644,12.19 18.216,20.126l6.364 13.871c-5.251,-1.402 -10.456,-6.407 -14.617,-9.879 -2.023,-1.688 -2.77,-2.203 -4.75,-3.77l-21.346 -19.126c-2.256,-2.15 -2.634,-1.887 -4.809,-3.712 -3.432,-2.879 -5.09,-5.55 -8.795,-8.245 -12.19,-8.864 -32.719,-32.983 -44.435,-46.094l-14.177 -18.84c-23.8,-40.172 -5.601,-55.166 1.319,-82.887 15.351,-61.482 4.878,-94.007 -17.107,-150.546 -1.682,-4.324 -4.405,-6.953 -5.479,-11.562l-2.13 0c-1.913,7.166 -9.296,16.45 -12.781,23.431 -4.088,8.192 -8.125,15.758 -11.719,24.492 -11.489,27.915 -15.089,64.208 -7.254,93.531 14.068,52.649 31.754,49.584 31.754,79.011 -6.095,-4.465 -22.715,-29.25 -27.06,-35.778l-41.734 -67.966c-6.841,-11.193 -11.136,-19.059 -13.669,-33.193 -3.307,-18.457 1.375,-36.291 10.453,-51.116 13.524,-22.088 24.522,-34.767 30.9,-63.936 1.833,-8.383 3.873,-17.472 4.819,-26.068 0.261,-2.378 -0.108,-4.925 0.159,-7.296 2.984,-26.506 -6.476,-51.241 -8.6,-76.763l-8.997 6.979c-7.316,7.324 -14.818,15.377 -20.811,23.921 -26.485,37.76 -42.221,83.217 -28.379,129.531 2.917,9.759 5.415,17.749 7.066,28.081 1.388,8.686 -0.001,7.61 -0.001,15.977l-1.066 0c0,-7.833 -9.64,-23.513 -13.127,-31.605 -6.519,-15.129 -15.826,-41.301 -19.889,-56.794 -2.076,-7.917 -5.2,-14.317 -7.03,-22.791 -1.034,-4.783 -1.396,-8.035 -2.684,-12.227 -1.212,-3.943 -2.21,-8.213 -3.156,-12.82 -3.593,-17.517 5.824,-41.121 15.82,-51.457 5.997,-6.199 11.298,-13.64 18.169,-19.107 2.628,-2.091 1.349,-0.492 3.977,-3.478l3.928 -4.593c15.484,-16.384 26.573,-36.574 33.678,-57.917 4.134,-12.421 5.896,-25.058 7.825,-37.971l1.908 -29.003c0.025,-6.618 -1.077,-8.239 -1.077,-14.899 -7.391,1.974 -27.949,18.958 -34.871,24.772 -1.864,1.565 -2.991,3.118 -4.778,4.807 -2.058,1.946 -3.018,2.038 -4.645,3.876l-23.002 29.186c-8.263,12.63 -16.037,26.715 -18.729,41.978 -5.484,31.091 0.618,43.017 -2.603,65.56 -0.747,5.223 -2.966,9.151 -2.966,15.14l-11.078 -64.54c-2.182,-12.465 -5.148,-55.755 -4.939,-69.697 0.351,-23.431 10.853,-46.582 31.992,-57.472 14.208,-7.318 27.71,-16.972 39.895,-27.204l25.082 -27.104 11.724 -18.099c5.828,-11.504 23.159,-55.662 23.414,-67.114 -12.77,0.284 -27.395,8.67 -38.167,14.02 -14.575,7.238 -30.632,16.472 -42.544,27.75l-8.497 9.608c-6.017,5.942 -10.124,13.39 -14.528,20.619l-5.958 11.082c-2.059,4.603 -3.743,7.027 -5.484,12.623 -2.736,8.797 -3.971,18.883 -5.796,29.35 -1.532,8.793 -4.811,22.363 -10.027,26.185 0,-4.483 -0.214,-9.473 -0.04,-13.886l5.595 -67.893c1.123,-7.887 2.977,-16.758 4.655,-25.167 2.946,-14.766 6,-31.64 15.058,-43.519 2.498,-3.276 4.596,-5.335 6.683,-8.228 2.232,-3.095 5.196,-4.547 7.748,-7.046 9.407,-9.215 29.551,-11.671 41.986,-16.708l29.719 -15.014c9.145,-5.544 18.211,-11.414 25.725,-19.007 14.628,-14.783 21.341,-23.315 32.429,-41.059l7.653 -14.713c2.241,-5.321 5.636,-9.283 7.043,-15.324 -10.447,0 -21.439,2.6 -31.005,4.143 -19.467,3.141 -35.116,9.61 -52.085,18.207 -7.288,3.692 -13.917,9.531 -20.665,14.482 -5.713,4.192 -10.528,9.4 -15.044,14.778 -9.113,10.854 -15.74,22.711 -21.293,36.102 -0.1,0.239 -0.205,0.521 -0.305,0.766 -0.103,0.255 -0.216,0.537 -0.321,0.795 -0.107,0.262 -0.202,0.552 -0.312,0.814l-11.269 21.747c-2.777,4.164 -4.285,6.744 -8.524,9.582 0.125,-5.591 2.995,-13.796 4.661,-18.77l24.096 -69.629c4.289,-10.601 9.128,-22.028 15.141,-31.721 6.751,-10.882 4.395,-15.622 20.45,-27.477 4.675,-3.451 9.349,-6.93 14.574,-8.869 18.904,-7.014 63.428,-2.329 97.179,-21.029l29.162 -18.766c23.945,-18.165 24.264,-23.416 36.237,-35.121 1.192,-1.164 5.185,-4.676 5.129,-6.391 -0.131,-3.955 -35.203,-5.093 -40.251,-5.906 -4.988,-0.803 -26.762,2.144 -32.668,3.084 -11.34,1.804 -26.251,7.112 -35.253,11.61l-28.938 18.989c-6.524,5.219 -11.218,12.214 -16.237,18.91 -1.172,1.563 -1.301,1.452 -2.324,3.001 -1.12,1.696 -1.255,2.479 -2.362,4.028 -8.135,11.391 -11.704,16.362 -24.693,23.235 1.237,-5.307 4.815,-10.34 7.473,-14.894l12.245 -20.771c1.033,-1.98 0.206,-0.926 1.416,-2.844 0.565,-0.894 2.388,-3.219 3.187,-4.268l21.901 -31.352c2.319,-3.51 3.951,-5.352 6.182,-8.729l7.457 -10.566c0.469,-0.797 1.213,-1.933 1.693,-2.662 6.875,-10.449 14.879,-19.814 25.55,-26.625 10.438,-6.663 23.077,-10.445 35.385,-10.437 11.543,0.007 22.554,2.379 34.068,3.218 20.916,1.524 39.531,0.098 60.29,-5.755 18.887,-5.325 35.069,-13.788 51.12,-24.498 6.197,-4.136 24.199,-13.114 25.987,-19.81 -3.874,-0.903 -7.048,-3.009 -11.563,-4.413 -31.775,-9.882 -70.143,-17.617 -100.701,-5.607 -19.71,7.747 -37.845,15.803 -53.083,31.056 -10.243,10.254 -15.745,18.109 -31.687,19.435 2.027,-3.027 4.164,-4.394 6.39,-7.455 2.112,-2.904 3.982,-4.52 6.654,-7.191 11.677,-11.673 23.075,-24.054 35.673,-34.621 7.459,-6.257 27.264,-26.779 37.74,-33.618 17.946,-11.717 51.087,-13.048 80.332,-32.564 3.294,-2.198 4.964,-3.697 8.088,-5.757l11.019 -9.217c6.521,-5.467 11.808,-12.586 17.25,-18.961 2.127,-2.493 3.843,-5.252 5.896,-7.951l30.594 -54.609c-17.522,0 -50.255,11.668 -66.948,18.255 -22.299,8.8 -51.251,28.969 -60.892,45.614 -4.314,7.448 -9.906,14.661 -13.836,22.375 -6.158,12.089 -8.949,27.78 -20.014,36.433 -7.859,6.145 -14.6,14.248 -22.564,20.039l-15.166 13.59c-3.021,3.059 -5.471,3.884 -7.99,6.921 -1.91,2.304 -0.67,1.504 -2.858,3.533l-3.807 3.647c-0.145,0.167 -0.328,0.426 -0.474,0.591l-21.094 21.508c-4,3.975 -9.877,12.7 -13.579,15.178z"/>
  <path class="fil0" d="M872.276 1490.004c-17.563,0 -29.31,-2.337 -39.694,-14.624 -6.535,-7.732 -6.122,-6.887 -9.299,-20.523 18.468,-1.537 24.289,-0.323 44.49,-4.502l28.864 -8.413c3.067,-1.151 5.427,-2.161 9.327,-3.454l20.818 -9.003c8.772,-4.778 10.873,-3.945 21.547,2.572 6.457,3.943 18.198,10.835 21.931,16.41l-44.026 25.201c-13.428,6.717 -34.692,16.336 -53.958,16.336zm-42.602 -47.927l-4.26 0c0.32,-14.395 19.419,-24.853 31.007,-28.636 17.777,-5.805 34.738,-3.081 51.854,1.157 8.929,2.211 7.404,0.781 9.798,4.047l-40.608 14.775c-3.781,1.268 -7.085,2.208 -10.743,3.115l-37.048 5.542zm227.921 -26.626c3.842,-0.321 12.533,-4.466 18.529,-5.968 23.379,-5.854 51.535,-2.761 63.479,19.813 -17.668,0 -29.002,0.163 -44.123,-2.739l-37.885 -11.106zm-78.814 27.691c-8.627,-7.499 -14.272,-11.053 -24.463,-17.075 -7.882,-4.658 -6.44,-2.429 -7.489,-6.357 4.911,-1.144 6.855,-3.451 11.348,-5.692 42.667,-21.282 25.292,-21.711 51.13,-8.858l18.466 10.291c-7.103,1.654 -23.905,12.133 -31.085,16.842 -2.236,1.467 -3.752,2.127 -5.994,3.591l-11.913 7.258zm170.408 -14.911c-2.861,0 -4.105,-9.741 -14.616,-18.401 -2.739,-2.257 -3.856,-3.129 -6.68,-5.035 -20.431,-13.78 -53.027,-10.375 -75.624,-1.06 -18.971,7.82 -16.895,4.04 -42.596,-7.461l-9.591 -4.255c2.06,-2.811 11.476,-7.08 15.125,-9.371 16.29,-10.229 49.631,-26.293 67.016,-32.033 35.964,-11.873 68.541,-20.478 103.886,-2.972 9.173,4.544 14.029,9.012 18.321,17.187 6.143,11.697 3.79,27.244 -3.667,38.292 -3.308,4.902 -8.207,9.193 -13.575,11.986 -10.435,5.43 -25.344,13.123 -37.999,13.123zm-266.263 -25.561c-26.047,0 -51.037,5.122 -63.579,30.145 -1.641,3.273 -2.069,6.24 -3.519,9.262 -8.05,0 -24.887,-4.173 -33.365,-8.172 -2.489,-1.174 -2.074,-1.342 -4.629,-2.827 -2.009,-1.168 -3.057,-1.725 -4.625,-2.83l-7.541 -6.305c-15.661,-16.019 -19.212,-39.935 -4.968,-56.295 9.128,-10.483 13.728,-14.032 27.09,-19.773 40.056,-17.21 86.16,-4.789 123.75,10.075 11.595,4.585 23.862,11.539 36.176,17.076l24.045 12.168c3.067,1.801 1.974,0.687 2.759,3.63l-20.603 10.283c-3.968,1.98 -5.511,3.323 -9.574,5.336 -3.972,1.968 -6.679,3.417 -10.636,5.343 -5.169,2.515 -5.285,2.644 -10.702,0.756 -4.62,-1.61 -7.4,-2.73 -12.303,-3.696 -8.957,-1.766 -16.631,-4.176 -27.776,-4.176zm101.18 -21.301c-2.304,0 -6.233,-2.439 -8.883,-3.898 -3.209,-1.766 -4.873,-2.997 -8.156,-4.624 -19.57,-9.692 -39.184,-19.881 -59.772,-27.563 -3.296,-1.229 -6.625,-2.112 -9.609,-3.171l-19.444 -6.118c-31,-7.75 -79.158,-9.278 -105.884,8.294l-10.336 7.77c-22.399,21.327 -25.328,51.924 -4.22,75.62l4.483 4.038c1.786,1.576 2.532,2.726 4.353,4.168 6.533,5.171 12.698,8.603 21.347,11.668 6.007,2.129 19.869,6.239 27.843,6.239 0,31.172 30.396,47.927 58.578,47.927 22.634,0 39.6,-7.205 59.018,-15.535 5.174,-2.219 46.323,-27.067 48.552,-27.067 2.271,2.313 17.228,19.7 24.303,37.905 5.385,13.859 7.003,35.696 -0.155,51.873 -2.873,6.492 -8.745,12.603 -13.919,16.107 -13.698,9.279 -34.278,6.617 -43.142,-7.904 -8.199,-13.434 -0.569,-25.788 -0.093,-30.526 -9.265,9.741 -13.088,31.233 0.769,43.595 12.551,11.196 32.44,13.049 47.875,5.768l7.734 -5.046c11.906,-11.231 17.1,-21.974 17.1,-47.869 0,-21.847 -8.971,-38.963 -20.419,-54.135 -3.839,-5.088 -8.358,-10.191 -11.922,-15.43 1.771,-2.141 4.986,-3.284 12.287,-7.994 2.886,-1.862 3.746,-1.48 6.888,-3.653 2.791,-1.931 3.958,-3.054 7.125,-4.707 41.97,-21.91 20.613,-16.253 65.893,-4.82 17.781,4.49 39.995,5.536 59.433,5.536 0,13.421 -0.083,21.217 -10.835,29.636 -6.439,5.042 -12.432,7.556 -21.104,9.782 -29.553,7.585 -64.571,-7.552 -79.891,-17.052 17.786,20.403 45.246,27.369 70.299,25.567 24.382,-1.754 45.55,-10.863 50.353,-34.906 1.046,-5.236 -0.302,-7.129 -0.302,-13.027 6.305,-3.026 16.345,-3.345 23.767,-6.056 14.576,-5.323 27.914,-12.347 36.522,-25.25 10.011,-15.006 10.563,-37.735 -0.478,-51.95 -40.251,-51.822 -124.738,-25.382 -173.771,-0.883 -2.845,1.421 -5.711,2.808 -8.536,4.243 -3.322,1.688 -5.081,3.113 -8.861,4.986l-17.814 9.937c-0.283,0.168 -1.116,0.633 -1.401,0.786l-6.023 3.444c-3.161,1.881 -5.451,4.295 -9.552,4.295z"/>
  <path class="fil0" d="M957.453 354.909c-42.384,-9.57 -75.564,-43.411 -84.169,-86.151 -5.53,-1.389 -11.061,-2.807 -16.593,-4.245 7.685,54.709 50.35,98.186 104.657,107.092 -0.785,-3.265 -0.915,-3.773 -1.13,-4.692l-1.874 -8.111 -0.891 -3.893zm-83.866 -131.586c9.196,-42.735 43.018,-76.318 85.883,-85.157l0.948 -3.847 1.969 -7.994 1.158 -4.758c-54.701,7.984 -98.042,50.961 -106.569,105.484l5.158 -1.175 7.742 -1.731 3.711 -0.822zm128.607 -85.599c43.966,8.101 78.841,42.138 88.183,85.655l3.823 0.891 8.088 1.893 -0.002 0.008c2.136,0.506 0.55,0.14 4.734,1.149 -8.52,-55.26 -52.795,-98.719 -108.453,-106.01 1.221,5.602 0.167,0.883 1.057,4.903l1.805 8.109 0.765 3.402zm88.873 128.95c-8.037,44.304 -42.399,79.436 -86.295,88.611l-0.028 0.085 -3.677 16.485c55.657,-8.424 99.417,-53.102 106.448,-109.204l-5.081 1.267c-1.749,0.433 -4.31,1.058 -7.807,1.902 -1.198,0.29 -2.383,0.573 -3.56,0.854z"/>
  <path class="fil0" d="M871.108 248.315c70.787,-0.539 80.558,-1.216 105.543,-1.224 -2.498,3.157 -17.393,16.073 -23.366,20.094 -2.897,-0.128 -7.748,-1.31 -22.177,-4.372 -7.247,-1.538 -15.778,-3.609 -23.589,-5.168 -7.215,-1.439 -23.56,-4.193 -36.334,-6.448 -6.388,-1.127 -11.883,-2.128 -14.896,-2.778 5.219,-0.034 10.152,-0.069 14.819,-0.104zm110.874 109.321c0.02,-33.561 0.087,-92.067 0.187,-107.349 3.412,1.235 20.672,21.997 20.672,22.366 -3.34,20.604 -11.256,57.72 -17.125,84.921 -1.244,5.767 -2.396,11.089 -3.393,15.713 -0.119,0.547 -0.234,1.084 -0.347,1.611 0,-0.512 0,-1.049 0,-1.61 0,-4.072 0.002,-9.434 0.006,-15.652zm-1.944 -118c-12.08,-10.06 -13.113,-11.057 -23.433,-20.938 1.149,-4.486 1.917,-8.767 7.06,-29.324l13.026 -53.371 3.347 -13.715c0,5.587 -0.162,8.191 -0.188,13.611 -0.003,0.474 -0.004,0.97 -0.004,1.492l0 88.4c0,6.478 0.192,7.769 0.192,13.845zm5.133 5.325c4.79,-4.232 13.039,-10.71 24.625,-20.297 26.59,4.482 55.161,10.642 82.968,17.593 3.557,0.889 7.101,1.791 10.627,2.704 -3.514,-0.003 -7.031,-0.005 -10.552,-0.007 -35.547,-0.019 -71.404,0.007 -107.668,0.007zm-50.058 -24.496c-15.528,3.245 -29.791,5.421 -63.21,12.856 -4.924,1.095 -10.263,2.304 -16.085,3.648 -10.018,2.312 -21.462,5.024 -34.665,8.236l34.515 9.124 16.051 4.244 6.522 1.724c10.176,2.359 19.187,3.727 28.968,6.179l28.97 6.177 -14.879 22.398c-2.935,5.108 27.78,-3.328 31.92,-4.292 4.633,22.198 9.281,44.112 14.3,65.943 1.238,5.385 2.498,10.764 3.787,16.142 3.324,13.878 6.834,27.742 10.621,41.645l9.265 -41.532 3.58 -16.052 0.795 -3.562c2.345,-11.143 4.548,-20.672 6.732,-31.61l6.302 -32.04c9.111,5.172 29.173,3.674 14.911,-19.17 25.84,-4.228 44.918,-8.049 68.903,-13.841 5.062,-1.223 10.343,-2.533 15.951,-3.953 9.109,-2.307 19.083,-4.904 30.392,-7.887 -10.155,-2.61 -20.364,-5.13 -30.605,-7.587 -5.356,-1.286 -10.721,-2.555 -16.091,-3.809 -22.137,-5.174 -44.359,-10.122 -66.42,-15.111 8.664,-13.334 -2.628,-24.116 -19.171,-15.976 -0.439,-5.273 -7.711,-36.879 -14.219,-66.01 -1.221,-5.466 -2.415,-10.844 -3.531,-15.945 -3.826,-17.471 -6.746,-31.688 -6.746,-35.007 -2.827,11.653 -5.645,23.373 -8.495,35.111 -1.3,5.351 -2.606,10.706 -3.924,16.058 -5.519,22.43 -11.224,44.834 -17.403,66.858 -8.789,-6.384 -26.618,1.776 -17.041,17.041z"/>
  <path class="fil0" d="M952.154 203.424c-14.317,-10.399 -27.75,-19.515 -43.667,-27.691 5.154,10.915 15.964,27.738 26.626,44.732 -21.754,4.546 -41.023,6.995 -113.96,24.74l57.088 15.092c10.176,2.359 19.187,3.727 28.968,6.179l28.97 6.177 -14.879 22.398c-4.545,7.909 -8.904,15.971 -13.878,23.399 7.508,-0.625 36.952,-25.631 45.798,-27.691 8.725,41.804 17.504,82.598 28.708,123.73l13.64 -61.146c2.345,-11.143 4.548,-20.672 6.732,-31.61l6.302 -32.04c15.752,8.941 30.011,19.346 44.732,29.822 -8.418,-16.176 -15.73,-26.422 -29.821,-48.992 40.149,-6.57 63.974,-12.156 115.246,-25.681 -37.36,-9.601 -75.473,-17.994 -113.116,-26.507 9.479,-14.588 18.609,-28.816 27.691,-43.667 -15.26,9.214 -31.068,19.919 -46.862,27.691 -0.803,-9.651 -24.496,-107.508 -24.496,-116.962 -9.514,39.226 -18.934,79.218 -29.822,118.027zm50.687 69.229c0,-0.369 -17.26,-21.131 -20.672,-22.366 -0.122,18.504 -0.193,100.38 -0.193,124.611 5.598,-25.997 16.734,-76.755 20.865,-102.245zm6.955 -47.989c-11.586,9.587 -19.835,16.065 -24.625,20.297 39.855,0 79.218,-0.032 118.22,0 -31.093,-8.052 -63.603,-15.241 -93.595,-20.297zm-53.191 -5.966c10.32,9.881 11.353,10.878 23.433,20.938 0,-6.076 -0.192,-7.367 -0.192,-13.845l0 -88.4c0,-6.479 0.192,-9.026 0.192,-15.103l-16.373 67.086c-5.143,20.557 -5.911,24.838 -7.06,29.324zm20.046 28.393c-26.632,0.009 -35.979,0.776 -120.362,1.328 9.042,1.95 40.409,7.066 51.23,9.226 7.811,1.559 16.342,3.63 23.589,5.168 14.429,3.062 19.28,4.244 22.177,4.372 5.973,-4.021 20.868,-16.937 23.366,-20.094z"/>
  <path class="fil0" d="M1020.317 595.363c-17.431,0 -38.341,-30.981 -38.341,-46.862 0,15.881 -20.911,46.862 -38.342,46.862 17.431,0 38.342,30.98 38.342,46.862 0,-15.882 20.91,-46.862 38.341,-46.862z"/>
  <path class="fil0" d="M883.504 574.932c-177.618,10.534 -225.217,12.438 -454.302,20.431 229.085,7.992 276.684,9.896 454.302,20.43 14.726,-10.534 18.672,-12.438 37.665,-20.43 -18.993,-7.993 -22.939,-9.897 -37.665,-20.431z"/>
  <path class="fil0" d="M1080.447 574.932c177.618,10.534 225.217,12.438 454.302,20.431 -229.085,7.992 -276.684,9.896 -454.302,20.43 -14.726,-10.534 -18.672,-12.438 -37.665,-20.43 18.993,-7.993 22.939,-9.897 37.665,-20.431z"/>
  <path class="fil0" d="M1020.317 1228.002c-17.431,0 -38.341,-30.981 -38.341,-46.862 0,15.881 -20.911,46.862 -38.342,46.862 17.431,0 38.342,30.981 38.342,46.862 0,-15.881 20.91,-46.862 38.341,-46.862z"/>
  <path class="fil0" d="M883.504 1207.572c-177.618,10.534 -225.217,12.438 -454.302,20.43 229.085,7.992 276.684,9.897 454.302,20.43 14.726,-10.533 18.672,-12.438 37.665,-20.43 -18.993,-7.992 -22.939,-9.896 -37.665,-20.43z"/>
  <path class="fil0" d="M1080.447 1207.572c177.618,10.534 225.217,12.438 454.302,20.43 -229.085,7.992 -276.684,9.897 -454.302,20.43 -14.726,-10.533 -18.672,-12.438 -37.665,-20.43 18.993,-7.992 22.939,-9.896 37.665,-20.43z"/>
  <path class="fil0" d="M1405.308 701.868c0,1.175 0.364,2.244 0.95,3.16 0.692,1.083 1.702,1.978 2.806,2.613l8.505 4.099c0.781,0.3 1.553,0.54 2.29,0.769 3.868,1.202 6.884,2.141 9.536,9.455 1.034,2.851 1.67,6.186 2.046,9.567 0.373,3.358 0.493,6.744 0.493,9.743 0,6.311 0.058,14.251 0.125,23.719 0.261,36.409 0.675,94.267 -1.125,109.668 -0.296,2.534 -0.285,4.702 -0.276,6.672 0.021,4.228 0.037,7.64 -2.558,11.651 -2.948,4.558 -7.812,6.305 -12.362,7.94 -4.894,1.758 -9.365,3.365 -9.365,8.628 0,2.147 1.168,4.455 2.935,6.222 1.691,1.698 3.908,2.856 6.143,2.856l76.683 0c1.024,0 1.048,-0.027 1.087,-0.071 0.401,-0.461 0.942,-1.078 2.828,-1.705 1.71,-11.962 0.785,-12.324 -5.218,-14.656 -2.025,-0.787 -4.537,-1.763 -7.595,-3.272 -4.306,-2.123 -6.741,-4.57 -8.119,-7.759 -1.333,-3.086 -1.595,-6.738 -1.595,-11.436l0 -66.541 75.06 0c1.661,0 2.804,0.312 3.63,1.138 0.826,0.826 1.138,1.969 1.138,3.63l0 66.033c0,12.933 -8.274,15.161 -14.42,16.815 -1.242,0.335 -2.39,0.644 -3.228,0.986 -1.705,0.696 -3.261,1.799 -4.296,3.235 -0.862,1.197 -1.36,2.646 -1.265,4.302 0.175,3.02 1.955,5.125 3.695,7.184 0.584,0.691 1.165,1.379 1.71,2.117l78.004 0c1.081,0 1.939,-0.117 2.664,-0.363 0.707,-0.239 1.325,-0.611 1.938,-1.121 1.035,-0.862 1.726,-2.129 2.068,-3.562 0.33,-1.382 0.333,-2.918 0.01,-4.408 -0.321,-1.477 -0.961,-2.888 -1.916,-4.034 -1.005,-1.207 -2.374,-2.135 -4.101,-2.547 -17.452,-4.17 -17.631,-9.401 -18.093,-22.945l-0.072 -2.034c-0.09,-2.418 -0.263,-4.023 -0.444,-5.705 -0.32,-2.979 -0.667,-6.202 -0.667,-14.546l0 -118.221c0,-24.64 7.863,-26.287 14.569,-27.691 1.359,-0.284 2.664,-0.557 3.745,-1.061 6.244,-2.911 6.222,-5.945 6.193,-9.735l-0.011 -0.92c0,-2.91 -1.004,-4.048 -2.194,-5.396 -0.418,-0.474 -0.856,-0.971 -1.296,-1.552l-76.946 0c-2.242,0 -4.156,0.773 -5.598,1.984 -1.182,0.993 -2.053,2.281 -2.531,3.676 -0.471,1.379 -0.559,2.861 -0.185,4.261 0.406,1.52 1.367,2.966 2.984,4.106 1.225,0.865 2.833,1.71 4.571,2.623 5.008,2.63 11.026,5.792 13.798,12.151 2.517,5.774 1.9,34.351 1.51,52.433 -0.107,4.942 -0.196,9.074 -0.196,11.983l0 1.246 -1.217 0.283c-8.478,1.976 -40.039,1.532 -60.334,1.248 -5.382,-0.075 -9.938,-0.139 -13.51,-0.139 -1.661,0 -2.804,-0.312 -3.63,-1.138 -0.825,-0.826 -1.137,-1.969 -1.137,-3.63l0 -48.992c0,-3.377 0.284,-5.395 0.563,-7.38 0.252,-1.794 0.502,-3.562 0.502,-6.466l0 -0.833 0.699 -0.469c2.112,-1.414 3.165,-2.544 4.065,-3.51 1.833,-1.968 3.138,-3.369 9.414,-5.006 6.278,-1.639 8.716,-4.279 8.92,-7.402 0.229,-3.534 -2.054,-11.027 -6.119,-11.021 -13.296,0.021 -80.686,-0.06 -80.808,-0.008 -3.344,1.434 -5.45,5.656 -5.45,9.079z"/>
  <path class="fil0" d="M542.618 731.689c0,4.385 0.05,10.936 0.115,19.485 0.317,41.69 0.976,128.198 -1.709,136.074 -0.991,2.906 -2.671,5.358 -4.789,7.363 -2.31,2.189 -5.141,3.844 -8.158,4.978l-3.415 1.084c-3.261,1.04 -4.14,1.729 -5.568,2.851 -0.565,0.438 -1.199,0.936 -2.044,1.529 0.006,5.816 0.24,13.577 8.02,13.577l59.642 0c3.121,0 5.818,-0.718 7.637,-2.206 1.568,-1.282 2.507,-3.203 2.507,-5.807 0,-7.315 -3.61,-8.59 -7.946,-10.121 -4.631,-1.635 -9.954,-3.515 -13.613,-11.153 -4.315,-9.008 -6.009,-114.834 -4.729,-132.668 9.724,11.269 17.372,23.986 25.458,36.486 3.76,5.811 6.909,10.679 8.389,12.818 6.662,9.781 74.394,114.781 85.607,114.781 5.58,0 9.331,-0.746 11.818,-2.766 2.474,-2.01 3.877,-5.433 4.773,-10.798 1.865,-11.163 1.37,-47.949 0.882,-84.174 -0.472,-35.105 -0.937,-69.689 0.773,-80.306 0.069,-0.431 0.119,-1.378 0.184,-2.636 0.302,-5.839 0.931,-17.986 6.286,-24.929 2.48,-3.215 5.908,-3.74 9.368,-4.269 4.92,-0.753 9.923,-1.521 10.134,-13.544 -0.814,-0.617 -1.472,-1.249 -2.105,-1.855 -1.49,-1.428 -2.81,-2.694 -5.901,-2.694 -2.12,0 -6.009,-0.083 -10.717,-0.184 -18.855,-0.404 -51.496,-1.105 -55.056,2.16 -1.315,1.201 -2.043,2.747 -2.446,4.447 -0.373,1.568 -0.476,3.292 -0.497,5.018 4.695,3.119 8.524,5.401 11.63,7.252 6.586,3.925 10.078,6.007 12.032,10.159 2.125,4.516 2.071,11.027 1.954,24.876 -0.027,3.367 -0.06,7.207 -0.06,12.863l0 86.447c-13.766,-22.149 -27.44,-44.386 -41.31,-66.464 -0.677,-1.182 -1.501,-2.387 -2.361,-3.646 -18.054,-26.659 -35.566,-54 -53.283,-80.917l-0.091 -0.091c-1.418,-1.409 -1.933,-1.92 -4.642,-1.92l-57.835 0 -0.348 0.393c-1.089,1.223 -3.01,3.379 -3.984,5.79 -1.366,3.379 -0.769,7.57 7.488,10.906 4.447,1.797 8.857,3.992 12.198,7.333 3.436,3.445 5.712,8.022 5.712,14.478z"/>
  <path class="fil0" d="M741.782 809.437c0,13.164 1.732,25.822 4.759,37.409 3.221,12.331 7.91,23.461 13.54,32.706 2.933,4.816 5.67,8.653 8.784,12.101 3.099,3.438 6.599,6.509 11.064,9.805 9.323,6.879 18.709,12.42 28.895,16.274 10.171,3.849 21.155,6.026 33.689,6.19 3.379,0.044 4.884,0.194 6.147,0.32 2.107,0.209 3.509,0.348 12.867,-0.274 5.561,-0.37 13.291,-2.305 21.167,-4.801 10.616,-3.365 21.408,-7.723 27.591,-10.684 1.83,-0.876 3.184,-1.5 4.413,-2.065 12.427,-5.717 12.453,-5.729 12.453,-35.208 0,-2.957 -0.194,-6.608 -0.402,-10.557 -0.675,-12.774 -1.508,-28.546 3.464,-32.846 1.562,-1.35 3.525,-2.43 5.578,-3.309 1.98,-0.847 4.065,-1.515 5.94,-2.057 0.878,-0.254 1.545,-0.396 2.21,-0.537 0.653,-0.138 1.307,-0.278 2.07,-0.502 2.663,-0.783 4.519,-3.267 5.367,-6.106 0.444,-1.484 0.611,-3.048 0.477,-4.513 -0.13,-1.41 -0.539,-2.729 -1.25,-3.783 -0.964,-1.43 -2.554,-2.381 -4.841,-2.381l-83.452 0c-0.773,0.836 -1.455,1.547 -2.03,2.145 -1.324,1.38 -1.996,2.08 -2.245,2.727 -0.266,0.692 -0.247,1.759 -0.208,3.922 0.019,1.099 0.043,2.416 0.043,3.479 0,5.743 6.432,6.969 12.185,8.067 1.334,0.253 2.631,0.501 3.902,0.812 4.606,1.127 7.269,3.763 8.782,7.422 1.422,3.439 1.758,7.717 1.758,12.456 0,3.214 0.034,5.878 0.069,8.606 0.134,10.472 0.282,21.897 -1.12,31.066 -0.564,3.686 -1.658,6.072 -4.011,7.99 -2.2,1.793 -5.418,3.033 -10.357,4.516 -4.446,1.335 -10.079,1.93 -15.748,1.935 -6.178,0.005 -12.423,-0.691 -17.223,-1.888 -5.532,-1.38 -9.699,-3.296 -13.315,-5.864 -3.583,-2.545 -6.585,-5.708 -9.832,-9.617 -0.039,-0.048 0.069,-0.116 0.219,-0.182l0.125 -0.104c-0.376,0.043 -0.734,-0.071 -1.203,-0.652 -3.961,-5.456 -7.453,-12.791 -10.913,-18.748l-0.025 -0.065c-10.334,-25.511 -10.335,-36.606 -10.334,-63.282l-0.006 -0.573c0,-15.141 2.935,-32.377 9.058,-47.366 5.278,-12.922 12.938,-24.191 23.148,-31.064 6.018,-4.051 10.541,-6.661 15.484,-8.271 4.962,-1.618 10.254,-2.205 17.785,-2.205 33.897,0 42.787,28.057 48.068,44.724 1.273,4.019 2.329,7.349 3.419,9.261 0.531,0.932 1.168,1.518 2.405,1.871 1.55,0.443 3.967,0.591 7.881,0.591 3.943,0 6.441,-1.676 7.941,-4.308 1.625,-2.852 2.202,-6.85 2.202,-11.16l0 -46.862c0,-1.051 -0.153,-1.944 -0.428,-2.697 -0.615,-1.681 -1.895,-2.767 -3.46,-3.438 -1.719,-0.736 -3.794,-0.998 -5.783,-0.998 -2.786,0 -5.321,0.505 -6.532,0.947 -2.287,0.836 -2.862,1.475 -3.145,1.79 -0.489,0.543 -0.751,0.84 -1.656,0.793 -0.584,-0.032 -0.961,-0.26 -1.787,-0.759 -0.779,-0.471 -2.108,-1.276 -4.368,-2.436 -1.792,-0.92 -3.227,-1.373 -4.971,-1.923 -0.429,-0.134 -0.903,-0.285 -1.797,-0.582 -9.958,-3.313 -21.112,-5.469 -32.426,-6.316 -11.104,-0.832 -22.346,-0.4 -32.74,1.434 -2.255,0.398 -4.8,1.039 -7.348,1.768 -2.562,0.733 -5.145,1.562 -7.453,2.326 -4.356,1.442 -9.771,3.886 -14.927,6.677 -4.95,2.68 -9.639,5.665 -12.893,8.371l-0.495 0.436 -13.371 13.111 -0.389 0.481 -9.464 12.744c-6.373,10.874 -11.624,21.387 -15.28,33.125 -3.657,11.738 -5.721,24.73 -5.721,40.585zm71.399 72.774c0.278,-0.122 0.698,-0.238 0.598,-0.211 -0.166,0.047 -0.321,0.09 -0.473,0.107l-0.125 0.104z"/>
  <path class="fil0" d="M441.525 783.861c-1.29,2.045 -2.848,3.917 -4.69,4.998 -5.096,2.993 -17.166,2.51 -26.701,2.128 -2.778,-0.111 -5.332,-0.213 -7.545,-0.213l-1.573 0 0 -1.573c0,-4.83 0.025,-12.707 0.049,-20.584 0.046,-14.806 0.093,-29.631 -0.076,-44.399l-0.015 -1.055c-0.073,-4.693 -0.105,-6.73 3.369,-7.738 2.012,-0.583 5.264,-0.51 11.006,-0.382 3.213,0.072 7.262,0.163 12.801,0.163l1.696 0.005c10.642,-0.01 21.173,-0.02 28.872,3.521l1.92 0.855c3.79,1.668 5.195,2.286 7.616,6.699 2.575,4.692 3.988,8.993 5.185,12.635 1.435,4.366 2.533,7.708 4.889,9.212 1.323,0.845 3.31,1.105 5.336,1.009 2.626,-0.124 5.213,-0.837 6.592,-1.673 3.996,-2.421 1.986,-23.383 0.79,-35.865 -0.251,-2.615 -0.47,-4.882 -0.579,-6.411 -0.241,-3.364 -1.118,-6.384 -1.967,-9.309 -0.303,-1.047 -0.605,-2.084 -0.869,-3.095l-151.3 0c-2.52,3.888 -2.514,5.17 -2.479,10.797l0.01 1.7c5.184,3.405 9.311,5.373 12.558,6.92 5.427,2.586 8.582,4.089 10.525,9.028 2.483,6.312 2.481,18.136 2.478,46.367l0.006 3.495c0,9.874 0.034,17.57 0.066,25.248 0.126,29.054 0.25,57.934 -1.127,86.666 -0.132,2.759 -0.569,4.775 -1.433,6.632 -0.856,1.843 -2.09,3.449 -3.834,5.427 -2.122,2.408 -5.73,3.783 -9.44,5.198 -6.089,2.321 -12.508,4.769 -10.141,12.189 0.494,1.55 1.067,2.569 1.806,3.309 0.741,0.743 1.726,1.274 3.014,1.825 4.852,2.076 72.519,1.514 111.058,1.195 10.318,-0.086 18.631,-0.155 22.419,-0.155l3.201 0.013c10.061,0.029 14.539,0.043 16.694,-3.026 1.882,-2.682 2.613,-7.949 3.927,-17.436 0.679,-4.913 1.513,-10.928 2.748,-18.282 0.255,-1.525 0.612,-3.266 0.98,-5.069 1.625,-7.954 3.528,-17.266 -1.213,-19.683 -2.747,-1.402 -5.568,-1.917 -8.109,-1.326 -2.301,0.534 -4.421,1.999 -6.103,4.564 -1.156,1.763 -2.02,4.099 -3.078,6.958 -1.579,4.272 -3.574,9.665 -7.648,16.33 -1.381,2.259 -3.293,4.179 -5.502,5.788 -2.488,1.813 -5.346,3.229 -8.235,4.296 -6.436,2.375 -17.033,2.082 -26.55,1.819 -6.145,-0.171 -11.83,-0.328 -15.418,0.264 -10.962,1.809 -14.832,-1.975 -16.125,-9.813 -0.651,-3.952 -0.56,-8.956 -0.453,-14.844 0.04,-2.219 0.083,-4.584 0.083,-7.559l0 -47.328 1.542 -0.034c2.258,-0.05 3.103,-0.286 3.942,-0.52 1.002,-0.282 2.005,-0.563 4.574,-0.627 2.969,-0.073 4.229,0.247 5.573,0.588 0.996,0.253 2.049,0.52 4.063,0.598 1.184,0.046 2.49,0.003 3.807,-0.039 2.002,-0.064 4.035,-0.13 5.863,0.084 1.194,0.14 2.074,0.292 2.905,0.435 1.665,0.288 3.124,0.539 6.58,0.539l1.1 0 7.33 20.448c0.62,0.882 1.901,1.94 3.417,2.782 1.364,0.757 2.87,1.31 4.184,1.356 1.815,0.062 3.647,-0.378 5.318,-0.988 1.353,-0.495 2.62,-1.11 3.699,-1.668 -0.045,-3.218 -0.31,-5.606 -0.568,-7.926 -0.309,-2.773 -0.607,-5.457 -0.53,-9.304 0.06,-2.999 0.331,-4.145 0.611,-5.336 0.19,-0.804 0.386,-1.634 0.506,-3.227l-0.006 -46.478c-0.837,-0.182 -1.73,-0.445 -2.674,-0.721 -1.963,-0.577 -7.995,-1.148 -9.877,0.117 -4.883,6.895 -6.78,13.04 -10.85,19.486z"/>
  <path class="fil0" d="M1246.615 751.925c0,11.023 2.565,19.746 6.256,26.97 3.693,7.232 8.558,13.037 13.118,18.152l7.057 6.48c1.582,1.063 3.316,2.019 4.99,2.943 0.997,0.55 1.976,1.091 2.919,1.65 2.001,1.188 3.638,2.068 5.501,3.069 1.051,0.565 2.171,1.167 3.375,1.832 4.857,2.68 10.338,5.237 15.591,7.686 7.901,3.683 15.3,7.133 19.701,10.622 1.933,1.532 3.122,2.334 4.185,3.052 1.807,1.218 3.275,2.208 7.266,5.926l1.144 1.146c6.138,6.571 9.924,13.136 11.019,20.247 1.095,7.112 -0.518,14.684 -5.181,23.257 -1.557,2.861 -3.499,5.258 -5.731,7.234 -6.325,5.603 -14.926,7.779 -23.639,7.618 -8.611,-0.159 -17.365,-2.608 -24.11,-6.277 -3.515,-1.912 -6.508,-4.169 -8.681,-6.622l-0.083 -0.093c-2.467,-3.872 -7.08,-10.026 -8.938,-13.805 -1.598,-3.138 -2.537,-6.098 -3.531,-9.23 -0.654,-2.063 -1.335,-4.206 -2.24,-6.495 -0.754,-1.905 -1.582,-3.524 -2.479,-4.864 -1.754,-2.62 -3.79,-4.225 -6.071,-4.88 -2.296,-0.66 -4.917,-0.383 -7.816,0.764 -1.504,0.594 -3.071,1.415 -4.691,2.449l0.003 2.476c0.027,12.963 0.092,43.554 -1.865,51.458 7.641,4.321 9.941,5.647 22.833,10.532 1.061,0.372 2.207,0.775 3.628,1.237 13.369,4.349 26.199,7.278 38.892,7.723 12.643,0.443 25.196,-1.576 38.075,-7.108 4.778,-2.052 9.668,-4.503 14.11,-7.476 4.404,-2.949 8.393,-6.426 11.428,-10.558 1.097,-1.493 2.233,-2.883 3.383,-4.291 2.886,-3.525 5.881,-7.191 7.719,-11.764 3.59,-8.931 6.174,-18.655 6.715,-28.447 0.462,-8.343 -0.562,-16.744 -3.715,-24.748 -1.907,-4.841 -3.832,-8.459 -6.039,-11.592 -2.21,-3.138 -4.724,-5.821 -7.795,-8.774 -0.125,-0.118 -0.242,-0.253 -0.357,-0.385l-0.097 -0.11 -20.729 -15.231c-0.927,-0.562 -1.829,-0.977 -2.858,-1.448 -0.623,-0.285 -1.29,-0.591 -1.956,-0.918 -0.89,-0.51 -1.85,-0.948 -2.735,-1.465 -6.305,-4.019 -12.869,-7.382 -19.145,-10.597 -19.192,-9.832 -35.773,-18.326 -35.773,-40.126 0,-7.952 2.891,-14.365 7.513,-19.076 4.123,-4.201 9.611,-7.022 15.633,-8.349 5.975,-1.316 12.501,-1.164 18.75,0.565 8.982,2.486 17.395,8.233 22.793,17.567 3.372,5.83 4.686,11.069 6.46,18.145l0.093 0.37c1.07,4.267 2.281,7.229 4.15,9.047 1.793,1.744 4.349,2.525 8.189,2.525 4.847,0 7.123,-2.931 8.071,-6.895 1.054,-4.413 0.589,-10.123 0.033,-14.864 -0.605,-5.155 -0.433,-10.504 -0.264,-15.757 0.216,-6.712 0.427,-13.268 -1.06,-18.866 -1.336,-5.028 -10.256,-6.939 -18.055,-8.608 -1.762,-0.378 -3.471,-0.744 -5.076,-1.143 -12.043,-3 -22.566,-5.08 -33.098,-5.385 -10.503,-0.304 -21.076,1.15 -33.272,5.209 -12.356,4.112 -23.106,12.546 -30.837,22.911 -7.941,10.645 -12.676,23.306 -12.676,35.385z"/>
  <path class="fil0" d="M956.922 700.802c0,6.453 4.454,8.163 9.449,10.08 7.534,2.892 16.112,6.184 16.112,22.937l0 139.521c0,4.562 -0.217,9.683 -1.144,14.15 -0.977,4.708 -2.768,8.698 -5.947,10.662 -1.809,1.118 -4.266,1.84 -6.851,2.598 -4.998,1.468 -10.554,3.099 -10.554,7.737 0,5.008 1.394,7.809 3.979,9.305 2.796,1.618 7.084,1.951 12.54,1.917 5.319,-0.032 10.655,-0.047 15.99,-0.046 5.318,0.001 10.637,0.018 15.937,0.046l29.86 -1.079c5.139,0 7.994,-0.012 10.968,-0.024 17.206,-0.069 36.125,-0.146 51.989,1.158 13.401,1.101 13.886,-1.49 18.069,-23.927 0.704,-3.776 1.503,-8.057 2.366,-12.418 0.578,-2.92 1.313,-5.852 2.027,-8.705 2.268,-9.062 4.332,-17.305 0.305,-20.959 -0.292,-0.265 -0.59,-0.504 -0.888,-0.716 -1.974,-1.394 -4.37,-1.961 -6.666,-1.744 -2.279,0.215 -4.457,1.203 -6.015,2.92 -0.228,0.251 -0.443,0.517 -0.64,0.796 -3.214,4.534 -5.43,9.313 -7.543,13.871 -6.552,14.132 -12.179,26.267 -42.67,26.267 -1.276,0 -2.389,0.019 -3.729,0.041 -8.037,0.136 -22.681,0.384 -26.39,-1.848 -1.274,-0.766 -2.399,-2.254 -3.192,-3.965 -0.786,-1.697 -1.278,-3.672 -1.278,-5.386l0 -151.237c0,-16.257 8.341,-19.035 15.548,-21.436 1.761,-0.586 3.447,-1.149 4.849,-1.907 2.286,-1.243 4.375,-3.693 5.37,-6.37 0.519,-1.415 0.728,-2.869 0.48,-4.199 -0.237,-1.27 -0.909,-2.465 -2.148,-3.44 -2.003,-1.576 -5.438,-2.613 -10.812,-2.613l-69.228 0c-1.815,0 -4.409,1.352 -6.567,3.117 -2.021,1.654 -3.576,3.569 -3.576,4.896z"/>
  <path class="fil0" d="M343.453 983.04l0 5.58c0.854,0.628 1.46,1.187 2.049,1.732 0.71,0.65 1.392,1.28 2.539,1.982 0.748,0.458 1.52,0.808 2.277,1.151 1.371,0.62 2.706,1.225 4.093,2.445 2.989,2.634 4.012,7.339 4.934,11.595 0.308,1.422 0.606,2.792 0.952,3.953 0.976,3.274 2.749,9.391 4.897,16.804 8.687,29.976 23.809,82.157 28.083,89.208 1.317,2.172 3.551,3.912 6.115,4.808 1.435,0.501 2.972,0.733 4.503,0.624 1.514,-0.108 3.022,-0.551 4.42,-1.398 2.302,-1.395 4.351,-3.905 5.728,-7.844 0.767,-2.196 1.665,-4.789 2.591,-7.599 0.891,-2.704 1.728,-5.369 2.331,-7.581 2.228,-8.167 4.163,-14.853 6.007,-21.225 3.65,-12.613 6.948,-24.008 11.234,-42.403l0.848 -3.643 1.683 2.646c0.271,0.132 0.539,0.48 0.845,1.156 0.054,0.096 0.085,0.194 0.163,0.427 0.057,0.179 0.169,0.513 0.491,1.429 1.422,4.046 3.14,11.449 4.992,19.427 2.316,9.984 4.845,20.88 7.179,26.911l11.676 34.049c1.577,2.802 2.753,4.288 4.097,5.024 1.334,0.731 3.088,0.822 5.767,0.822 10.952,0 14.129,-13.133 17.419,-26.737l0.831 -3.415c1.799,-7.272 3.501,-14.104 5.257,-20.651 1.776,-6.62 3.638,-13.069 5.76,-19.595 2.268,-6.972 3.949,-14.338 5.641,-21.757 1.445,-6.341 2.902,-12.722 4.733,-18.936 6.23,-21.134 9.392,-21.596 12.472,-22.046 0.854,-0.124 1.699,-0.249 2.79,-1.8 0.633,-0.902 0.801,-2.074 0.705,-3.305 -0.12,-1.542 -0.644,-3.154 -1.229,-4.523 -1.876,0.012 -3.734,0.054 -5.689,0.097 -6.49,0.144 -13.962,0.311 -18.819,-0.389 -1.856,-0.267 -3.495,-0.462 -5.319,-0.595 -1.874,-0.136 -3.903,-0.209 -6.487,-0.229 -7.991,-0.06 -7.991,0.4 -7.98,6.102l0.001 0.895c0.007,2.554 2.918,4.352 5.494,5.942 2.72,1.68 5.163,3.186 5.163,5.773 0,5.696 -1.039,12.339 -2.426,18.779 -4.597,21.349 -11.002,35.065 -16.258,56.772 -4.403,-18.391 -7.053,-28.225 -11.472,-45.985 -1.002,-4.033 -2.082,-7.742 -3.14,-11.378 -3.069,-10.541 -5.961,-20.475 -6.057,-34.506 -3.547,-2.947 -4.945,-2.744 -8.11,-2.283 -1.598,0.233 -3.584,0.522 -6.393,0.6 -1.116,0.031 -2.633,-0.131 -4.408,-0.321 -5.881,-0.629 -14.951,-1.6 -16.491,3.76 -1.082,3.766 0.554,6.138 2.717,9.273l0.225 0.326c3.567,5.177 1.966,10.695 -0.375,18.771 -0.632,2.177 -1.322,4.555 -1.988,7.229 -1.218,4.888 -2.457,9.009 -3.689,13.106 -1.133,3.773 -2.262,7.528 -3.354,11.815 -1.398,6.325 -5.294,19.061 -7.825,25.6 -1.528,-3.964 -7.22,-25.459 -9.018,-31.401 -0.388,-1.284 -0.764,-2.525 -1.251,-4.186 -1.192,-4.061 -2.062,-7.703 -2.989,-11.583 -0.371,-1.552 -0.753,-3.148 -1.334,-5.475 -0.702,-2.806 -1.28,-4.867 -1.759,-6.579 -1.544,-5.514 -2.124,-7.58 -2.124,-16.594l0 -0.833 0.7 -0.469c3.232,-2.165 5.464,-4.35 6.422,-6.309 0.464,-0.947 0.598,-1.808 0.361,-2.534 -0.244,-0.748 -0.911,-1.451 -2.049,-2.075 -2.473,-1.355 -6.836,-2.183 -13.447,-2.183 -1.998,0 -4.693,-0.1 -7.635,-0.209 -3.352,-0.125 -7.048,-0.262 -10.844,-0.262 -8.935,0 -17.226,0.717 -17.226,4.223z"/>
  <path class="fil0" d="M1158.216 734.884l0 141.651c0,20.968 -8.504,22.986 -15.824,24.722 -4.319,1.023 -8.13,1.928 -8.376,8.47l-0.004 0.441c0,2.278 0.673,4.376 1.943,5.91 1.233,1.489 3.061,2.462 5.412,2.55l74.92 0.002c5.344,0 5.658,-2.557 6.211,-7.062l0.233 -1.806c0.739,-5.458 -2.94,-7.004 -7.363,-8.86 -7.01,-2.942 -15.564,-6.533 -15.564,-23.301l0 -150.173c0,-11.368 6.62,-13.715 13.11,-16.017 5.21,-1.847 10.321,-3.661 10.321,-11.674 0,-0.023 -0.586,-2.266 -2.094,-4.303 -0.707,-0.954 -1.609,-1.795 -2.722,-2.166 -3.203,-1.069 -41.739,-0.73 -61.303,-0.558 -5.064,0.045 -8.939,0.079 -10.057,0.079 -3.566,0 -6.242,0.376 -8.277,1.358 -1.943,0.938 -3.383,2.489 -4.57,4.877l-0.059 0.119c-1.168,2.411 -1.151,4.36 -0.34,5.93 0.865,1.672 2.635,3.04 4.865,4.15l0.197 0.099c2.086,1.008 3.788,1.573 5.308,2.079 3.252,1.081 5.772,1.919 9.155,5.574 2.674,2.891 2.778,3.384 3.513,6.953l0.227 1.087c0.368,1.745 0.648,3.091 0.843,4.599 0.196,1.518 0.295,3.107 0.295,5.27z"/>
  <path class="fil0" d="M761.673 1106.775c-0.771,-3.547 -0.761,-11.263 -0.693,-15.708 0.012,-0.831 0.026,-1.7 0.028,-2.585 0.019,-6.701 0.013,-13.406 0.007,-20.108l-0.006 -11.288 1.567 0c10.469,0 18.196,-0.186 24.128,-0.328 9.273,-0.223 14.321,-0.344 17.216,0.502 4.365,1.277 4.256,3.876 4.017,9.576 -0.056,1.346 -0.121,2.895 -0.127,4.602 -0.008,2.483 0.063,5.094 0.136,7.731 0.183,6.693 0.371,13.565 -0.717,19.67 -1.61,9.023 -5.548,10.514 -9.054,11.84 -1.861,0.704 -3.558,1.347 -4.273,3.798 -1.115,3.823 1.646,5.963 5.752,7.161 6.027,1.759 14.761,1.609 19.999,1.519l2.565 -0.037c3.358,0 6.649,0.085 9.556,0.159 2.08,0.053 3.945,0.101 5.923,0.101 8.586,0.006 11.545,-1.353 11.698,-10.673 -0.313,-0.239 -0.592,-0.469 -0.849,-0.681 -0.334,-0.277 -0.629,-0.52 -0.799,-0.625 -2.11,-1.295 -3.851,-2.115 -5.268,-2.782 -3.694,-1.739 -5.529,-2.603 -6.446,-7.158 -0.781,-3.876 -0.72,-10.574 -0.6,-23.862 0.054,-6.098 0.124,-13.662 0.124,-24.265 0.013,-0.013 0.377,-49.556 0.403,-54.155l0.06 -0.203c1.269,-4.35 3.444,-6.266 5.797,-6.998 1.739,-0.537 3.455,-0.391 4.951,-0.111 0.241,-0.55 0.518,-1.084 0.803,-1.634 1.261,-2.433 2.726,-5.258 0.275,-10.935 -13.391,0.292 -25.109,-0.041 -38.471,-0.041 -4.628,-0.247 -8.09,0.493 -12.506,0.978 -0.335,1.483 -0.527,2.483 -0.631,3.54 -0.113,1.158 -0.135,2.526 -0.138,4.816 1.187,0.774 2.358,1.488 3.452,2.155 5.056,3.082 8.644,5.271 8.677,10.073 0,12.671 -0.29,25.431 -0.439,38.111l-46.66 0 -0.12 -1.443c-1.345,-16.165 -1.064,-19.438 -0.628,-24.504 0.278,-3.241 0.622,-7.237 0.622,-16.097l0 -0.833 0.7 -0.469c1.038,-0.696 2.295,-1.367 3.622,-2.075 4.243,-2.266 9.343,-4.991 8.186,-9.656 -1.173,-4.731 -6.447,-4.3 -12.283,-3.823 -1.973,0.161 -4.006,0.327 -6.105,0.32 -8.945,-0.032 -15.763,-0.5 -21.017,-0.861 -3.32,-0.227 -6.009,-0.411 -8.202,-0.411 -6.255,0 -7.44,1.95 -7.546,10.955 4.905,0.278 8.54,1.888 11.031,4.796 2.695,3.147 3.935,7.741 3.897,13.746 -0.054,8.672 0.009,17.401 0.073,26.145 0.154,21.212 0.31,42.526 -1.218,63.408 -0.175,2.391 -0.268,5.041 -0.637,8.239l-1.59 0.683c-1.085,0.253 -2.045,0.549 -2.974,0.894 -0.936,0.348 -1.907,0.774 -2.977,1.27 -0.878,0.407 -1.672,0.78 -2.359,1.263 -0.647,0.457 -1.252,1.047 -1.84,1.935 -1.678,2.535 -0.889,4.261 0.103,6.43 0.446,0.974 0.924,2.02 1.306,3.23 2.078,0.06 3.934,0.267 5.879,0.483 2.563,0.285 5.29,0.589 8.887,0.574 1.31,-0.005 2.993,0.005 4.914,0.017 9.088,0.057 23.617,0.148 28.549,-1.234 3.8,-2.74 3.007,-7.191 -0.703,-10.81 -2.715,-2.648 -6.001,-3.587 -7.027,-4.327z"/>
  <path class="fil0" d="M952.154 1050.646l-6.897 0 0 -55.333 1.572 0c1.59,0 2.831,-0.028 4.089,-0.057 13.956,-0.322 29.435,-0.681 29.435,27.191 0,2.885 -0.97,7.692 -2.399,12.031 -1.266,3.843 -2.93,7.403 -4.671,9.116 -2.517,2.479 -5.488,4.252 -9.025,5.401 -3.47,1.128 -7.468,1.651 -12.104,1.651zm-47.645 -70.471l-0.054 0.25c-0.79,3.685 -2.705,12.607 11.844,15.997l1.21 0.282c-0.009,32.071 0.031,64.245 0.031,96.061 -0.002,12.886 -3.097,14.416 -8.958,17.31 -1.458,0.721 -3.111,1.537 -4.921,2.687 -0.006,3.104 0.025,5.318 1.799,7.914 0.579,0.848 1.154,1.467 1.889,1.849 0.767,0.398 1.792,0.595 3.268,0.595 3.686,0 7.784,0.127 11.887,0.253 13.82,0.427 27.724,0.857 35.533,-3.802l0 -6.818 -12.78 -8.521 0 -0.841c0,-1.465 0.043,-3.348 0.086,-5.247 0.237,-10.459 -0.086,-22.287 -0.086,-33.095l0 -1.572 1.572 0c1.066,0 1.701,-0.017 2.273,-0.031 4.099,-0.105 5.943,-0.152 8.903,3.417 2.113,2.548 5.44,11.922 7.835,15.928 2.153,3.6 4.343,7.872 6.592,12.262 5.205,10.154 10.747,20.966 16.787,25.211 2.452,1.722 10.449,3.378 18.305,3.853 6.326,0.383 12.432,-0.008 15.206,-1.764 1.457,-0.921 2.384,-1.923 2.911,-2.934 0.534,-1.022 0.665,-2.085 0.537,-3.092 -0.134,-1.055 -0.555,-2.069 -1.104,-2.937 -0.678,-1.072 -1.522,-1.886 -2.244,-2.262 -1.126,-0.588 -2.225,-0.849 -3.346,-1.114 -1.788,-0.424 -3.629,-0.861 -6.055,-2.517 -1.288,-0.879 -3.063,-3.131 -4.83,-5.731 -2.455,-3.614 -4.979,-7.998 -6.028,-10.086 -1.575,-3.137 -2.916,-5.774 -4.355,-8.447 -1.392,-2.582 -2.828,-5.092 -4.6,-7.98 -1.347,-2.197 -3.168,-5.261 -4.721,-8.533 -1.59,-3.353 -2.899,-6.929 -3.16,-10.062l-0.112 -1.351 1.322 -0.308c2.876,-0.67 5.82,-2.012 8.463,-3.72 2.76,-1.782 5.171,-3.944 6.818,-6.138 2.771,-3.691 4.919,-8.691 6.164,-14.298 1.616,-7.282 1.7,-15.553 -0.352,-23.301 -2.033,-7.679 -6.173,-14.836 -13.008,-19.967 -4.023,-3.02 -8.992,-5.352 -15.029,-6.693 -2.413,-0.535 -14.813,-0.809 -28.96,-0.913 -19.47,-0.145 -42.058,-0.007 -46.532,0.206z"/>
  <path class="fil0" d="M1425.036 995.313c1.843,0 3.144,-0.026 4.383,-0.05 9.065,-0.182 15.161,-0.303 20.967,7.486 4.284,5.748 5.781,13.004 5.721,19.859 -0.085,9.631 -3.329,18.623 -6.221,21.5 -2.265,2.254 -5.773,3.821 -9.789,4.849 -4.712,1.199 -10.151,1.689 -15.061,1.689l-1.567 0c0.015,-16.557 0.259,-34.925 0.025,-51.304l-0.03 -2.456 0 -1.573 1.572 0zm-40.312 -14.958c-0.272,1.027 -0.561,1.971 -0.822,2.828 -1.264,4.137 -1.752,5.736 5.297,9.476 2.033,1.079 3.862,2.153 5.242,3.738 1.455,1.671 2.347,3.803 2.347,6.879 0,3.677 0.043,8.499 0.096,14.502 0.236,26.346 0.663,74.043 -1.164,81.756 -0.112,0.469 -0.206,0.957 -0.302,1.459 -0.433,2.269 -0.917,4.792 -2.762,6.389 -1.529,1.324 -3.303,1.667 -5.047,2.004 -2.369,0.457 -4.668,0.901 -4.668,5.72 0,1.916 0.229,2.866 0.472,3.879 0.164,0.683 0.335,1.393 0.464,2.327 0.858,0.241 1.602,0.499 2.309,0.744 1.645,0.57 3.069,1.064 5.834,1.064 1.602,0 4.232,0.067 7.294,0.145 12.661,0.322 33.198,0.845 36.717,-2.548 1.043,-1.005 1.645,-2.181 1.841,-3.439 0.211,-1.361 -0.037,-2.856 -0.702,-4.377 -1.217,-2.783 -2.002,-2.885 -3.359,-3.059 -1.181,-0.151 -2.645,-0.341 -4.663,-1.268 -7,-3.217 -6.411,-19.48 -5.915,-33.172 0.118,-3.269 0.231,-6.385 0.231,-9.288l0 -1.572 1.572 0c8.879,0 10.011,2.5 13.632,10.5 1.696,3.747 3.998,8.832 8.15,15.61 3.342,5.453 5.892,10.117 8.048,14.061 8.611,15.746 10.648,19.471 36.204,19.471 3.239,0 5.796,-0.696 7.635,-1.835 1.137,-0.705 1.999,-1.583 2.569,-2.564 0.556,-0.955 0.84,-2.025 0.84,-3.143 0,-1.386 -0.433,-2.852 -1.319,-4.282 -1.124,-1.814 -2.397,-2.04 -3.92,-2.309 -3.239,-0.573 -7.307,-1.294 -12.938,-10.719 -1.919,-2.852 -9.663,-16.324 -10.764,-19.161 -1.013,-1.903 -2.203,-3.896 -3.391,-5.884 -3.461,-5.795 -6.911,-11.57 -6.911,-16.693l0 -0.833 0.7 -0.469c1.707,-1.143 3.399,-2.007 5.102,-2.875 6.6,-3.365 13.381,-6.825 16.607,-25.887 1.234,-7.294 0.598,-14.355 -1.393,-20.537 -2.112,-6.555 -5.741,-12.11 -10.268,-15.886l-1.741 -1.466c-2.263,-1.901 -4.203,-3.377 -6.336,-4.591 -2.119,-1.207 -4.448,-2.168 -7.505,-3.047 -2.729,-0.781 -7.601,-1.604 -12.342,-2.048 -14.132,-1.322 -33.25,0.99 -48.806,0.622 -4.448,-0.105 -8.563,-0.202 -12.165,-0.222z"/>
  <path class="fil0" d="M1198.739 1104.456l0 -47.242 1.443 -0.121c0.664,-0.055 1.306,-0.125 2.038,-0.205 6.269,-0.679 18.39,-1.995 24.502,4.123 1.303,1.304 4.797,8.315 6.002,16.335 0.553,3.688 0.65,7.64 -0.129,11.428 -0.794,3.864 -2.496,7.538 -5.534,10.572 -3.374,3.371 -8.37,5.919 -15.563,7 -4.974,0.345 -9.181,0.146 -12.759,-0.443l0 -1.447zm10.093 -62.331l-10.093 0 0 -1.572c0,-11.291 -0.155,-19.422 -0.271,-25.566 -0.162,-8.537 -0.254,-13.371 0.221,-16.124 0.962,-5.593 26.312,-9.957 29.604,16.018 0.657,5.192 0.334,10.461 -1.495,14.17 -3.374,6.839 -9.448,13.074 -17.966,13.074zm-50.616 -61.292l0 7.764c4.294,2.871 11.455,7.715 12.338,11.533 4.433,19.197 2.408,80.09 0.006,104.64l-1.47 1.074c-1.411,0.747 -2.74,1.407 -3.96,2.012 -6.337,3.146 -9.295,4.615 -6.616,11.567 0.48,1.246 1.029,2.217 1.754,2.835 0.654,0.559 1.537,0.862 2.766,0.862 5.445,0 11.326,0.137 17.179,0.273 31.717,0.74 62.612,1.46 77.181,-21.036 3.639,-5.616 5.273,-13.049 5.163,-20.523 -0.116,-7.847 -2.156,-15.698 -5.819,-21.516 -1.604,-2.548 -4.205,-5.344 -7.152,-7.622 -2.612,-2.019 -5.469,-3.612 -8.094,-4.223l-1.216 -0.283 0 -4.623c9.713,-2.264 15.785,-14.694 17.009,-23.857 0.918,-6.873 -0.166,-13.903 -2.91,-19.919l-5.803 -7.664c-3.019,-2.994 -6.96,-5.718 -11.42,-7.801 -4.212,-1.967 -8.888,-3.362 -13.689,-3.874 -7.991,-0.851 -62.445,-0.897 -65.247,0.381z"/>
  <path class="fil0" d="M1053.892 1050.138c0,-6.286 0.684,-13.455 1.856,-20.102 1.142,-6.477 2.759,-12.49 4.672,-16.753 1.832,-4.084 4.047,-7.471 6.505,-10.227 4.823,-5.409 10.6,-8.427 16.327,-9.579 5.742,-1.154 11.435,-0.424 16.072,1.658 2.037,0.914 3.872,2.084 5.42,3.465 1.888,1.682 3.375,3.478 4.689,5.45 1.272,1.908 2.38,3.995 3.543,6.318 5.999,11.978 8.523,28.737 7.963,44.914 -0.574,16.574 -4.393,32.623 -11.037,42.398 -2.999,4.412 -6.829,7.63 -11.066,9.557 -3.801,1.73 -7.937,2.425 -12.105,2.023 -4.145,-0.4 -8.312,-1.889 -12.199,-4.532 -5.11,-3.473 -9.739,-8.933 -13.188,-16.517 -2.549,-5.601 -4.373,-11.569 -5.579,-17.741 -1.292,-6.614 -1.873,-13.456 -1.873,-20.332zm-23.641 35.56c6.091,13.075 13.853,22.976 23.87,29.587 10.008,6.606 22.331,9.965 37.555,9.965 5.716,0 11.662,-1.444 17.193,-3.672 6.475,-2.608 12.367,-6.281 16.671,-9.983l4.271 -4.153c8.943,-9.912 13.924,-19.046 16.663,-29.163 2.762,-10.2 3.273,-21.487 3.273,-35.596 0,-6.566 -1.083,-13.494 -3.007,-20.122 -3.298,-11.357 -8.152,-20.662 -16.701,-28.625 -3.229,-3.009 -6.775,-5.751 -10.031,-7.9 -13.604,-8.977 -36.032,-10.228 -51.983,-5.537 -17.359,5.105 -28.85,19.731 -36.404,35.629 -8.405,17.697 -9.534,52.041 -1.37,69.57z"/>
  <path class="fil0" d="M1273.242 983.04c0,6.943 3.415,8.6 6.632,10.16 3.708,1.798 7.213,3.499 7.213,10.076l0 91.594c0,13.495 -3.989,14.118 -8.315,14.792 -1.668,0.259 -3.41,0.531 -4.681,2.249 -1.014,1.368 -1.598,2.939 -1.598,4.453 0,0.822 0.172,1.624 0.539,2.356 0.377,0.75 0.968,1.455 1.801,2.072 1.898,1.404 5.001,2.328 9.617,2.328 1.652,0 5.848,0.049 11.206,0.112 21.645,0.254 63.354,0.744 68.062,-1.107 5.982,-2.353 7.144,-15.768 8.09,-26.693 0.146,-1.679 0.287,-3.299 0.479,-5.173 0.228,-2.216 -0.036,-3.875 -0.623,-5.071 -0.552,-1.125 -1.416,-1.853 -2.419,-2.257 -1.075,-0.434 -2.328,-0.521 -3.565,-0.347 -1.679,0.239 -3.284,0.95 -4.36,1.927 -1.367,1.24 -1.7,2.178 -2.156,3.457 -0.227,0.639 -0.48,1.35 -0.87,2.212 -0.578,1.283 -2.43,4.387 -4.254,7.112 -1.477,2.208 -2.981,4.22 -3.874,4.945 -2.298,1.869 -8.208,3.14 -14.581,3.808 -7.546,0.791 -15.909,0.786 -19.54,-0.059l-1.183 -0.276 -0.027 -1.223c-0.047,-2.114 -0.272,-3.112 -0.496,-4.103 -0.287,-1.274 -0.575,-2.543 -0.575,-5.514l0 -31.951c0,-1.263 0.452,-2.28 1.234,-3.084 0.769,-0.789 1.839,-1.317 3.083,-1.637 1.123,-0.288 2.384,-0.413 3.674,-0.413 4.337,0.006 9.45,1.464 10.808,2.787 1.096,1.067 1.154,1.235 1.326,1.74 0.039,0.117 0.102,0.299 0.603,1.034 1.363,1.999 2.37,3.751 3.207,5.208 2.545,4.428 3.2,5.564 11.676,3.658 2.589,-6.24 2.751,-36.409 0.928,-42.962 -0.831,-0.1 -1.646,-0.267 -2.47,-0.436 -2.456,-0.504 -5.015,-1.029 -7.525,0.825 -0.363,0.268 -0.822,0.863 -1.278,1.566 -0.636,0.98 -1.214,2.11 -1.557,2.939 -0.311,0.753 -0.477,1.288 -0.608,1.713 -0.449,1.458 -0.605,1.965 -2.952,4.169 -5.557,4.695 -9.906,3.164 -20.246,3.164 -0.789,-2.195 0.321,-26.455 0.197,-31.458 -0.051,-2.021 -0.096,-3.81 -0.115,-5.264 -0.017,-1.169 -0.07,-2.273 -0.115,-3.237 -0.2,-4.194 -0.295,-6.201 2.689,-7.365 2.053,-0.8 5.625,-0.747 12.465,-0.646 2.805,0.043 6.228,0.093 11.045,0.093 7.497,0 10.242,6.208 12.887,12.189 1.054,2.385 2.092,4.731 3.38,6.44 1.608,2.132 3.19,3.271 4.649,3.723 1.221,0.379 2.378,0.277 3.389,-0.111 1.051,-0.405 1.969,-1.121 2.664,-1.94 0.805,-0.948 1.28,-1.979 1.28,-2.753 0,-3.611 0.1,-6.959 0.189,-9.931 0.29,-9.711 0.455,-15.19 -3.83,-23.642l-90.506 0 -0.241 0.738c-0.264,0.784 -0.452,1.345 -0.452,3.014z"/>
  <path class="fil0" d="M1496.902 992.626c0,3.958 0.222,9.385 0.644,14.446 0.304,3.654 0.711,7.107 1.21,9.658 1.434,0.15 2.305,0.311 3.098,0.456 1.41,0.258 2.55,0.467 7.409,0.491 0.848,-1.892 1.426,-4.148 2.01,-6.436 2.477,-9.692 5.094,-19.926 27.015,-14.819l1.21 0.282 -0.029 63.048c-0.006,4.585 0.307,7.976 0.616,11.313 0.617,6.669 1.216,13.135 -0.665,28.184 -0.852,6.818 -4.654,8.991 -8.089,10.954 -2.42,1.383 -4.608,2.633 -4.608,5.968 0,2.613 0.833,4.329 2.28,5.364 1.575,1.126 3.933,1.585 6.799,1.585l36.211 0c3.211,0 7.255,-0.239 10.612,-0.335l0.285 -1.399c0.364,-0.883 0.815,-1.955 1.122,-3.015 0.947,-3.281 0.79,-7.474 -6.705,-9.64 -2.764,-0.798 -5.07,-2.215 -6.667,-4.288 -1.497,-1.941 -2.349,-4.415 -2.349,-7.443l0 -98.966 0.897 -0.431c1.827,-0.876 3.147,-1.444 4.659,-1.8 1.518,-0.357 3.159,-0.49 5.602,-0.49 12.099,0 14.164,5 17.306,12.605 1.197,2.9 2.569,6.22 4.836,9.758 10.161,-0.076 12.585,-1.583 12.585,-5.854 0,-1.832 -0.334,-4.145 -0.741,-6.965 -0.582,-4.031 -1.31,-9.069 -1.468,-15.392l-0.008 -0.332c-0.184,-7.434 -0.244,-9.845 -10.144,-9.845 -29.788,0 -57.842,0.639 -87.252,-0.17 -2.073,-0.057 -3.935,-0.109 -5.871,-0.109 -9.061,0 -11.81,1.667 -11.81,13.617z"/>
  <path class="fil0" d="M600.427 1017.674c9.169,-0.126 9.757,-2.454 10.896,-6.981 0.567,-2.251 1.248,-4.954 2.805,-8.157 3.728,-7.667 11.132,-7.489 19.684,-7.283 1.239,0.03 2.503,0.06 4.152,0.06l1.532 0 0.034 1.542c0.604,27.265 -0.256,53.978 -0.047,81.425 0.037,4.873 0.069,9.124 0.076,12.359 0.005,2.371 -0.234,5.567 -0.632,8.404 -0.366,2.6 -0.878,4.964 -1.478,6.26 -0.885,1.912 -2.537,3.263 -4.514,4.2 -1.898,0.898 -4.106,1.416 -6.178,1.689l0 8.307 1.487 0.838c2.999,1.71 4.878,2.783 10.786,2.783l39.66 0c0.359,-0.49 0.691,-0.896 1.001,-1.276 1.018,-1.249 1.757,-2.154 2.211,-5.257 0.727,-4.962 -1.986,-6.001 -5.035,-7.166 -4.518,-1.728 -9.588,-3.666 -9.588,-13.485l0 -95.855c0,-1.152 0.394,-2.112 1.092,-2.895 0.773,-0.868 1.896,-1.466 3.233,-1.829 1.208,-0.323 2.593,-0.474 4.037,-0.474 4.645,0 10.279,1.56 12.684,3.701 0.097,0.086 0.469,0.47 0.909,0.932 0.794,0.832 1.918,2.053 1.93,2.07l0.013 0.013c1.327,1.941 3.857,7.663 5.174,10.018 0.577,1.137 0.982,1.999 1.312,2.703 0.544,1.161 0.864,1.844 1.853,3.365l2.058 0.02c5.058,0.051 7.566,0.077 8.413,-1.826 1.087,-2.444 0.807,-7.884 0.254,-18.663l-0.334 -6.667c-0.094,-1.984 -0.302,-3.289 -0.506,-4.582 -0.246,-1.557 -0.491,-3.1 -0.563,-5.615l-110.28 0c-1.551,0 -1.896,1.702 -1.896,4.405 0,1.367 0.082,2.837 0.17,4.436 0.18,3.255 0.388,7.023 0.064,10.978 -0.111,1.358 -0.343,2.508 -0.569,3.635 -0.438,2.152 -0.854,4.222 -0.154,7.262 0.629,2.739 1.397,3.51 2.387,4.501 0.557,0.551 1.168,1.163 1.867,2.105z"/>
  <path class="fil0" d="M540.219 991.73c3.9,3.072 5.683,4.478 6.545,6.221 0.789,1.596 0.665,3.006 0.438,5.6 -0.151,1.715 -0.353,4.012 -0.358,7.151 -0.011,6.589 0.259,12.603 0.533,18.712 0.28,6.247 0.566,12.595 0.566,19.66 0,1.888 0.041,4.072 0.09,6.722 0.283,15.277 0.835,44.936 -3.854,50.533 -2.005,2.393 -4.363,2.925 -6.55,3.418 -2.449,0.551 -4.597,1.035 -4.597,6.424 0,2.144 0.675,3.892 1.865,5.084 1.192,1.19 2.94,1.865 5.083,1.865l37.277 0c3.519,0 5.992,-0.695 7.621,-1.795 0.914,-0.617 1.557,-1.359 1.962,-2.167 0.409,-0.819 0.596,-1.726 0.596,-2.664 0,-1.705 -0.617,-3.491 -1.649,-5.019 -1.293,-1.915 -2.172,-2.016 -3.096,-2.12 -1.349,-0.153 -2.751,-0.313 -4.612,-2.204 -1.597,-1.623 -2.469,-3.745 -2.937,-5.99 -0.444,-2.131 -0.522,-4.333 -0.522,-6.291l0 -91.594c0,-6.949 3.438,-8.899 6.813,-10.813 2.472,-1.402 4.902,-2.78 4.902,-7.293 0,-4.742 -4.404,-5.836 -10.282,-5.836 -2.821,0 -5.94,0.244 -9.107,0.491 -3.348,0.261 -6.752,0.527 -9.925,0.527 -2.665,0 -5.3,-0.154 -7.758,-0.297 -6.22,-0.362 -11.209,-0.654 -13.372,1.907 -0.856,1.664 -1.203,2.603 -1.337,3.501 -0.365,2.439 3.771,4.774 5.665,6.267z"/>
  <path class="fil0" d="M1026.708 432.41l-2.077 1.225 2.077 -1.225zm-89.464 0l0.318 0.317c-0.022,-0.021 -0.424,-0.211 -0.318,-0.317zm-3.195 -1.065l2.29 0.585 -2.29 -0.585zm0 0c-13.287,-1.106 -55.892,-22.373 -125.718,-23.39 -5.668,-0.082 -4.585,-1.118 -16.999,-1.106l-60.729 4.239c-16.567,1.266 -12.76,10.179 -12.76,-51.101 0,-99.76 0,-199.519 0,-299.279 10.307,0 23.808,-1.266 30.887,2.13l0 319.515c5.447,2.613 29.086,2.405 40.473,3.193 29.009,2.007 56.822,9.698 84.776,17.469 10.851,3.016 55.14,20.968 60.07,28.33zm47.927 12.781c-0.19,-0.166 -0.491,-0.671 -0.575,-0.491l-59.051 -38.933c-40.161,-23.439 -108.312,-38.325 -155.514,-38.325l0 -348.271c8.773,0 22.342,-0.361 30.051,0.836l14.687 1.288c10.429,0.73 19.648,1.793 29.549,3.467 19.565,3.309 34.819,6.522 52.121,12.848 11.072,4.049 11.517,3.419 23.425,8.526 8.101,3.475 15.28,6.6 22.705,10.312l20.951 11c25.544,13.413 14.402,16.867 31.202,7.072l54.677 -28.398c48.043,-19.29 96.271,-26.951 149.847,-26.951 0.277,3.331 1.065,3.783 1.065,7.455l0 337.621c0,3.854 -4.991,3.601 -13.84,4.266l-17.137 0.969c-30.801,3.434 -63.353,9.223 -91.193,20.644 -2.69,1.103 -3.546,1.619 -5.861,2.712 -2.374,1.121 -4.111,1.924 -6.592,2.931 -17.228,6.986 -20.912,7.476 -37.062,18.33 -1.226,0.823 -1.049,0.713 -2.483,1.653l-8.672 5.288c-15.847,9.15 -26.694,20.396 -32.3,24.151zm-303.539 -341.881c13.968,0 22.366,-2.057 22.366,3.195l0 218.335c0.008,8.748 -1.098,13.01 -1.067,21.3 0.056,14.551 0.001,29.114 0.001,43.668 0,15.882 1.066,27.87 1.066,43.667 18.303,0 25.51,-4.07 38.328,-4.274 12.442,-0.199 23.501,-3.181 36.225,-3.181 46.341,0 45.704,1.352 90.649,7.336 11.599,1.544 20.948,2.918 31.408,5.868 5.25,1.48 9.783,3.454 14.475,4.696 3.443,0.912 4.479,1.162 7.25,2.336 2.048,0.867 4.524,2.13 7.456,2.13l-177.864 1.065c-4.978,-0.005 -7.638,-0.076 -12.184,0.68 -4.269,0.71 -5.746,-0.68 -11.247,-0.68l-46.862 0c0,-22.85 -1.066,-42.066 -1.066,-64.969l0 -159.756c0,-16.57 2.846,-69.376 0.639,-81.583 -1.065,-5.893 -0.639,-13.146 -0.639,-19.597l1.066 -20.236zm607.078 70.293c0,24.798 -1.349,231.2 0.639,242.192 1.687,9.335 1.187,26.883 -0.639,34.721 -41.372,0 -80.43,-1.065 -122.481,-1.065 -41.182,0 -82.363,0 -123.546,0l5.73 -2.792c7.84,-2.599 6.578,-3.56 13.172,-4.933 19.712,-4.104 30.255,-7.87 53.751,-11.217 6.102,-0.869 11.601,-0.613 17.646,-1.525 37.574,-5.671 58.779,-2.514 94.999,0.252 12.837,0.98 25.91,4.268 38.363,5.304 0,-30.633 -1.065,-57.729 -1.065,-88.399l0 -177.863c0,-22.903 1.065,-42.119 1.065,-64.968 9.559,0 14.355,-0.802 22.366,1.064 1.785,7.662 2.296,24.517 0.836,33.853 -1.519,9.708 -0.836,23.882 -0.836,35.376zm-258.807 259.872c6.409,-5.571 24.99,-14 34.076,-18.112 1.799,-0.814 3.538,-1.304 5.337,-2.118 33.339,-15.087 64.088,-21.557 101.09,-25.65 3.179,-0.352 2.077,-0.816 6.461,-0.994l28.774 -1.049c8.431,0.054 7.682,0.211 12.776,-3.2 0,-27.876 1.065,-52.126 1.065,-79.878l0 -121.416c0,-17.979 -3.567,-113.587 1.065,-118.22 6.093,-2.924 19.572,-1.065 27.691,-1.065 0,13.485 1.065,22.942 1.065,36.212 0,13.69 -1.065,23.482 -1.065,37.276l0 226.855c0,14.006 2.225,32.376 0.289,45.022 -1.645,10.755 -1.495,5.024 -20.524,3.969 -20.72,-1.148 -39.666,-4.945 -62.845,-3.2 -25.015,1.885 -53.235,4.769 -76.251,8.954 -14.958,2.719 -29.911,7.446 -44.229,12.218 -4.176,1.391 -10.403,4.032 -14.775,4.396zm-275.826 -431.131c-5.623,10.37 1.58,42.568 -4.282,42.388l-46.854 -1.314c2.928,6.37 1.551,31.896 -0.009,38.59 -8.47,0 -18.112,0.785 -25.987,-0.638 -7.956,-1.438 -19.688,-0.878 -26.2,0.638l0 395.134c4.061,0.338 4.239,1.087 9.559,1.092l34.944 -0.256c14.01,-2.193 212.593,-0.836 237.735,-0.836 9.935,0 16.36,5.317 23.422,8.53 12.662,5.759 29.792,8.566 43.829,4.402 1.936,-0.574 3.743,-0.946 5.801,-1.654l16.082 -6.284c4.138,-2.199 4.819,-4.994 9.916,-4.994 33.901,0 262.442,-1.262 276.105,0.863 4.639,0.721 6.162,-0.769 10.394,-0.863 0,-18.246 0.994,-34.23 1.066,-53.254 0.034,-8.988 -1.066,-15.555 -1.066,-25.559l0 -307.8c0,-5.353 0.957,-4.769 1.064,-9.585l-53.252 1.064 0 -39.406c-5.697,0 -5.877,0.917 -10.611,1.104l-36.251 1.026 0 -31.952c0,-5.352 -0.958,-4.769 -1.065,-9.585 -5.573,-0.463 -8.11,-2.13 -14.911,-2.13 -52.244,0 -78.208,3.458 -129.731,17.246 -7.65,2.047 -16.32,5.521 -23.788,8.164 -8.283,2.931 -15.312,6.259 -22.918,10.097l-31.218 16.71c-4.371,2.556 -6.019,5.018 -9.615,7.426l-44.39 -24.838c-8.506,-3.608 -15.395,-6.467 -24.099,-9.984 -9.215,-3.722 -16.28,-5.949 -26.164,-8.981 -21.453,-6.582 -65.831,-14.907 -88.531,-14.78 -23.402,0.132 -18.663,-2.385 -48.975,0.219z"/>
 </g>
</svg>
